<svg xmlns="http://www.w3.org/2000/svg" xmlns:xlink="http://www.w3.org/1999/xlink" width="170" zoomAndPan="magnify" viewBox="0 0 127.92 75.119995" height="90" preserveAspectRatio="xMidYMid meet" version="1.0"><defs><g/></defs><g fill="#7c6f64" fill-opacity="1"><g transform="translate(3.735781, 39.66039)"><g><path d="M 0.078125 -1.359375 C 0.421875 -1.359375 0.707031 -1.457031 0.9375 -1.65625 C 1.164062 -1.851562 1.347656 -2.09375 1.484375 -2.375 C 1.617188 -2.664062 1.78125 -3.078125 1.96875 -3.609375 L 5.828125 -14.1875 L 7.21875 -14.1875 L 11.421875 -3.421875 C 11.523438 -3.160156 11.632812 -2.832031 11.75 -2.4375 C 11.875 -2.050781 11.953125 -1.726562 11.984375 -1.46875 C 12.410156 -1.5 12.789062 -1.515625 13.125 -1.515625 L 13.125 0 L 7.8125 0 L 7.8125 -1.296875 C 8.4375 -1.296875 8.75 -1.5625 8.75 -2.09375 C 8.75 -2.351562 8.675781 -2.671875 8.53125 -3.046875 L 8.140625 -4.125 L 3.859375 -4.046875 L 3.53125 -3.125 C 3.5 -3.019531 3.410156 -2.78125 3.265625 -2.40625 C 3.128906 -2.039062 3.007812 -1.742188 2.90625 -1.515625 C 3.320312 -1.554688 3.789062 -1.578125 4.3125 -1.578125 L 4.3125 0 L 0.078125 0 Z M 7.65625 -5.53125 L 6.734375 -8 C 6.359375 -9.082031 6.109375 -9.988281 5.984375 -10.71875 L 5.96875 -10.71875 C 5.757812 -9.769531 5.515625 -8.898438 5.234375 -8.109375 L 4.34375 -5.53125 Z M 7.65625 -5.53125 "/></g></g></g><g fill="#7c6f64" fill-opacity="1"><g transform="translate(16.50108, 39.66039)"><g><path d="M 4.71875 0.3125 C 2.664062 0.3125 1.640625 -0.953125 1.640625 -3.484375 L 1.6875 -8.25 L 0.34375 -8.25 L 0.34375 -9.875 C 0.757812 -9.875 1.15625 -10.003906 1.53125 -10.265625 C 1.90625 -10.535156 2.222656 -10.859375 2.484375 -11.234375 C 2.753906 -11.617188 2.941406 -11.992188 3.046875 -12.359375 L 4.5 -12.359375 L 4.484375 -9.875 L 7 -9.875 L 7 -8.359375 L 4.484375 -8.296875 L 4.46875 -3.4375 C 4.46875 -2.15625 4.863281 -1.515625 5.65625 -1.515625 C 6.289062 -1.515625 6.890625 -1.910156 7.453125 -2.703125 L 8.40625 -1.8125 C 7.78125 -0.90625 7.15625 -0.320312 6.53125 -0.0625 C 5.914062 0.1875 5.3125 0.3125 4.71875 0.3125 Z M 4.71875 0.3125 "/></g></g></g><g fill="#7c6f64" fill-opacity="1"><g transform="translate(24.662216, 39.66039)"><g><path d="M 4.90625 0.3125 C 3.726562 0.3125 2.882812 -0.0234375 2.375 -0.703125 C 1.875 -1.390625 1.625 -2.503906 1.625 -4.046875 L 1.625 -6.328125 C 1.625 -6.878906 1.644531 -7.453125 1.6875 -8.046875 L 0.296875 -7.984375 L 0.296875 -9.484375 C 1.128906 -9.484375 1.800781 -9.539062 2.3125 -9.65625 C 2.820312 -9.78125 3.164062 -9.921875 3.34375 -10.078125 L 4.421875 -10.078125 L 4.421875 -4.03125 C 4.421875 -3.164062 4.53125 -2.523438 4.75 -2.109375 C 4.976562 -1.703125 5.335938 -1.5 5.828125 -1.5 C 6.160156 -1.5 6.5 -1.59375 6.84375 -1.78125 C 7.195312 -1.96875 7.492188 -2.191406 7.734375 -2.453125 L 7.734375 -6.328125 C 7.734375 -6.941406 7.757812 -7.515625 7.8125 -8.046875 L 6.421875 -7.984375 L 6.421875 -9.484375 C 7.253906 -9.484375 7.921875 -9.539062 8.421875 -9.65625 C 8.929688 -9.78125 9.273438 -9.921875 9.453125 -10.078125 L 10.53125 -10.078125 L 10.53125 -3.1875 C 10.53125 -2.550781 10.503906 -1.96875 10.453125 -1.4375 C 10.878906 -1.476562 11.304688 -1.5 11.734375 -1.5 L 11.734375 0 L 7.984375 0 L 7.859375 -1.03125 L 7.84375 -1.03125 C 7.351562 -0.601562 6.878906 -0.269531 6.421875 -0.03125 C 5.972656 0.195312 5.46875 0.3125 4.90625 0.3125 Z M 4.90625 0.3125 "/></g></g></g><g fill="#7c6f64" fill-opacity="1"><g transform="translate(36.874277, 39.66039)"><g><path d="M 0.8125 -1.28125 C 1.3125 -1.28125 1.628906 -1.414062 1.765625 -1.6875 C 1.898438 -1.96875 1.96875 -2.421875 1.96875 -3.046875 L 1.96875 -6.359375 C 1.96875 -6.953125 2 -7.515625 2.0625 -8.046875 L 0.671875 -7.984375 L 0.671875 -9.484375 C 1.503906 -9.484375 2.175781 -9.539062 2.6875 -9.65625 C 3.195312 -9.78125 3.539062 -9.921875 3.71875 -10.078125 L 4.6875 -10.078125 C 4.707031 -9.878906 4.722656 -9.617188 4.734375 -9.296875 C 4.753906 -8.984375 4.765625 -8.675781 4.765625 -8.375 L 4.796875 -8.375 C 5.691406 -9.59375 6.644531 -10.203125 7.65625 -10.203125 C 8.15625 -10.203125 8.566406 -10.0625 8.890625 -9.78125 C 9.210938 -9.507812 9.375 -9.101562 9.375 -8.5625 C 9.375 -8.21875 9.257812 -7.898438 9.03125 -7.609375 C 8.8125 -7.316406 8.476562 -7.171875 8.03125 -7.171875 C 7.695312 -7.171875 7.398438 -7.253906 7.140625 -7.421875 C 6.890625 -7.597656 6.742188 -7.898438 6.703125 -8.328125 C 6.328125 -8.328125 5.945312 -8.109375 5.5625 -7.671875 C 5.175781 -7.242188 4.914062 -6.820312 4.78125 -6.40625 L 4.78125 -3.1875 C 4.78125 -2.550781 4.753906 -1.96875 4.703125 -1.4375 C 5.128906 -1.476562 5.554688 -1.5 5.984375 -1.5 L 5.984375 0 L 0.8125 0 Z M 0.8125 -1.28125 "/></g></g></g><g fill="#7c6f64" fill-opacity="1"><g transform="translate(46.359376, 39.66039)"><g/></g></g><g fill="#7c6f64" fill-opacity="1"><g transform="translate(51.556425, 39.66039)"><g><path d="M 7.609375 0.3125 C 5.535156 0.3125 4.066406 -0.234375 3.203125 -1.328125 C 2.347656 -2.429688 1.921875 -3.925781 1.921875 -5.8125 L 1.921875 -10.59375 C 1.921875 -11.332031 1.945312 -11.925781 2 -12.375 L 0.515625 -12.3125 L 0.515625 -13.828125 L 6.1875 -13.828125 L 6.1875 -12.53125 C 5.84375 -12.519531 5.570312 -12.476562 5.375 -12.40625 C 5.1875 -12.332031 5.039062 -12.175781 4.9375 -11.9375 C 4.832031 -11.695312 4.78125 -11.320312 4.78125 -10.8125 L 4.78125 -5.375 C 4.78125 -2.582031 5.890625 -1.1875 8.109375 -1.1875 C 9.148438 -1.1875 9.957031 -1.539062 10.53125 -2.25 C 11.101562 -2.96875 11.390625 -4.023438 11.390625 -5.421875 L 11.390625 -10.59375 C 11.390625 -11.476562 11.414062 -12.070312 11.46875 -12.375 L 9.96875 -12.3125 L 9.96875 -13.828125 L 14.546875 -13.828125 L 14.546875 -12.53125 C 14.191406 -12.519531 13.921875 -12.476562 13.734375 -12.40625 C 13.546875 -12.332031 13.398438 -12.175781 13.296875 -11.9375 C 13.191406 -11.695312 13.140625 -11.320312 13.140625 -10.8125 L 13.140625 -5.875 C 13.140625 -3.707031 12.640625 -2.132812 11.640625 -1.15625 C 10.648438 -0.175781 9.304688 0.3125 7.609375 0.3125 Z M 7.609375 0.3125 "/></g></g></g><g fill="#7c6f64" fill-opacity="1"><g transform="translate(65.922312, 39.66039)"><g><path d="M 3.28125 0.3125 C 2.445312 0.3125 1.789062 0.0664062 1.3125 -0.421875 C 0.832031 -0.921875 0.59375 -1.550781 0.59375 -2.3125 C 0.59375 -3.46875 1.128906 -4.34375 2.203125 -4.9375 C 3.285156 -5.539062 4.585938 -5.878906 6.109375 -5.953125 L 6.109375 -6.984375 C 6.109375 -8.179688 5.660156 -8.78125 4.765625 -8.78125 C 4.179688 -8.78125 3.707031 -8.59375 3.34375 -8.21875 C 3.5 -8.039062 3.578125 -7.789062 3.578125 -7.46875 C 3.578125 -7.15625 3.46875 -6.875 3.25 -6.625 C 3.03125 -6.375 2.710938 -6.25 2.296875 -6.25 C 1.898438 -6.25 1.585938 -6.375 1.359375 -6.625 C 1.140625 -6.882812 1.03125 -7.207031 1.03125 -7.59375 C 1.03125 -8.101562 1.210938 -8.554688 1.578125 -8.953125 C 1.953125 -9.347656 2.457031 -9.65625 3.09375 -9.875 C 3.726562 -10.09375 4.429688 -10.203125 5.203125 -10.203125 C 7.640625 -10.203125 8.859375 -8.941406 8.859375 -6.421875 L 8.828125 -3.1875 C 8.828125 -2.550781 8.800781 -1.96875 8.75 -1.4375 C 9.1875 -1.476562 9.617188 -1.5 10.046875 -1.5 L 10.046875 0 L 6.3125 0 C 6.28125 -0.164062 6.25 -0.46875 6.21875 -0.90625 L 6.203125 -0.90625 C 5.398438 -0.09375 4.425781 0.3125 3.28125 0.3125 Z M 4.53125 -1.625 C 5.125 -1.625 5.644531 -1.859375 6.09375 -2.328125 L 6.09375 -4.546875 C 5.3125 -4.460938 4.664062 -4.265625 4.15625 -3.953125 C 3.65625 -3.640625 3.40625 -3.210938 3.40625 -2.671875 C 3.40625 -2.316406 3.507812 -2.050781 3.71875 -1.875 C 3.9375 -1.707031 4.207031 -1.625 4.53125 -1.625 Z M 4.53125 -1.625 "/></g></g></g><g fill="#7c6f64" fill-opacity="1"><g transform="translate(76.276876, 39.66039)"><g><path d="M 0.8125 -1.28125 C 1.3125 -1.28125 1.628906 -1.414062 1.765625 -1.6875 C 1.898438 -1.96875 1.96875 -2.421875 1.96875 -3.046875 L 1.96875 -6.359375 C 1.96875 -6.953125 2 -7.515625 2.0625 -8.046875 L 0.671875 -7.984375 L 0.671875 -9.484375 C 1.503906 -9.484375 2.175781 -9.539062 2.6875 -9.65625 C 3.195312 -9.78125 3.539062 -9.921875 3.71875 -10.078125 L 4.6875 -10.078125 C 4.6875 -10.054688 4.710938 -9.726562 4.765625 -9.09375 L 4.796875 -9.09375 C 5.179688 -9.394531 5.65625 -9.65625 6.21875 -9.875 C 6.78125 -10.09375 7.257812 -10.203125 7.65625 -10.203125 C 8.851562 -10.203125 9.707031 -9.859375 10.21875 -9.171875 C 10.726562 -8.484375 10.984375 -7.367188 10.984375 -5.828125 L 10.984375 -3.1875 C 10.984375 -2.550781 10.957031 -1.96875 10.90625 -1.4375 C 11.34375 -1.476562 11.773438 -1.5 12.203125 -1.5 L 12.203125 0 L 7.015625 0 L 7.015625 -1.28125 C 7.515625 -1.28125 7.835938 -1.414062 7.984375 -1.6875 C 8.128906 -1.96875 8.203125 -2.421875 8.203125 -3.046875 L 8.1875 -5.84375 C 8.1875 -6.71875 8.0625 -7.359375 7.8125 -7.765625 C 7.570312 -8.171875 7.160156 -8.375 6.578125 -8.375 C 6.265625 -8.375 5.941406 -8.304688 5.609375 -8.171875 C 5.285156 -8.035156 5.007812 -7.863281 4.78125 -7.65625 L 4.78125 -3.1875 C 4.78125 -2.550781 4.753906 -1.96875 4.703125 -1.4375 C 5.128906 -1.476562 5.554688 -1.5 5.984375 -1.5 L 5.984375 0 L 0.8125 0 Z M 0.8125 -1.28125 "/></g></g></g><g fill="#7c6f64" fill-opacity="1"><g transform="translate(88.84463, 39.66039)"><g><path d="M 5.0625 5.359375 C 3.46875 5.359375 2.316406 5.113281 1.609375 4.625 C 0.898438 4.132812 0.546875 3.515625 0.546875 2.765625 C 0.546875 2.304688 0.691406 1.875 0.984375 1.46875 C 1.285156 1.070312 1.769531 0.75 2.4375 0.5 C 1.914062 0.351562 1.539062 0.128906 1.3125 -0.171875 C 1.082031 -0.472656 0.96875 -0.832031 0.96875 -1.25 C 0.96875 -1.644531 1.117188 -2.046875 1.421875 -2.453125 C 1.734375 -2.859375 2.222656 -3.160156 2.890625 -3.359375 L 2.890625 -3.375 C 2.296875 -3.613281 1.820312 -3.984375 1.46875 -4.484375 C 1.125 -4.992188 0.953125 -5.601562 0.953125 -6.3125 C 0.953125 -7.039062 1.15625 -7.703125 1.5625 -8.296875 C 1.976562 -8.890625 2.523438 -9.351562 3.203125 -9.6875 C 3.890625 -10.03125 4.609375 -10.203125 5.359375 -10.203125 C 5.753906 -10.203125 6.164062 -10.148438 6.59375 -10.046875 C 7.03125 -9.953125 7.398438 -9.800781 7.703125 -9.59375 C 7.953125 -10.269531 8.285156 -10.835938 8.703125 -11.296875 C 9.128906 -11.753906 9.632812 -11.984375 10.21875 -11.984375 C 10.65625 -11.984375 10.988281 -11.867188 11.21875 -11.640625 C 11.457031 -11.421875 11.578125 -11.113281 11.578125 -10.71875 C 11.578125 -10.414062 11.484375 -10.132812 11.296875 -9.875 C 11.109375 -9.625 10.804688 -9.5 10.390625 -9.5 C 10.179688 -9.5 9.972656 -9.578125 9.765625 -9.734375 C 9.566406 -9.890625 9.445312 -10.070312 9.40625 -10.28125 C 9.238281 -10.226562 9.066406 -10.054688 8.890625 -9.765625 C 8.722656 -9.484375 8.625 -9.226562 8.59375 -9 C 8.96875 -8.664062 9.253906 -8.28125 9.453125 -7.84375 C 9.660156 -7.40625 9.765625 -6.9375 9.765625 -6.4375 C 9.765625 -5.707031 9.550781 -5.039062 9.125 -4.4375 C 8.707031 -3.832031 8.15625 -3.363281 7.46875 -3.03125 C 6.78125 -2.695312 6.050781 -2.53125 5.28125 -2.53125 L 4.71875 -2.546875 C 4.4375 -2.578125 4.226562 -2.59375 4.09375 -2.59375 C 3.800781 -2.59375 3.554688 -2.535156 3.359375 -2.421875 C 3.160156 -2.316406 3.0625 -2.175781 3.0625 -2 C 3.0625 -1.757812 3.242188 -1.585938 3.609375 -1.484375 C 3.972656 -1.390625 4.632812 -1.316406 5.59375 -1.265625 C 7.25 -1.171875 8.503906 -0.894531 9.359375 -0.4375 C 10.222656 0.0195312 10.65625 0.789062 10.65625 1.875 C 10.65625 2.582031 10.378906 3.203125 9.828125 3.734375 C 9.285156 4.265625 8.582031 4.664062 7.71875 4.9375 C 6.851562 5.21875 5.96875 5.359375 5.0625 5.359375 Z M 5.359375 -3.859375 C 5.859375 -3.859375 6.253906 -4.082031 6.546875 -4.53125 C 6.847656 -4.976562 7 -5.5 7 -6.09375 C 7 -6.84375 6.851562 -7.492188 6.5625 -8.046875 C 6.269531 -8.597656 5.863281 -8.875 5.34375 -8.875 C 4.832031 -8.875 4.425781 -8.640625 4.125 -8.171875 C 3.820312 -7.710938 3.671875 -7.171875 3.671875 -6.546875 C 3.671875 -5.804688 3.820312 -5.171875 4.125 -4.640625 C 4.425781 -4.117188 4.835938 -3.859375 5.359375 -3.859375 Z M 5.640625 4 C 6.222656 4 6.726562 3.914062 7.15625 3.75 C 7.59375 3.59375 7.921875 3.390625 8.140625 3.140625 C 8.367188 2.898438 8.484375 2.65625 8.484375 2.40625 C 8.484375 2 8.25 1.691406 7.78125 1.484375 C 7.3125 1.273438 6.597656 1.148438 5.640625 1.109375 C 5.523438 1.097656 5.351562 1.09375 5.125 1.09375 C 4.988281 1.070312 4.753906 1.050781 4.421875 1.03125 C 4.097656 1.019531 3.828125 0.992188 3.609375 0.953125 C 3.421875 1.109375 3.269531 1.3125 3.15625 1.5625 C 3.039062 1.8125 2.984375 2.0625 2.984375 2.3125 C 2.984375 2.820312 3.222656 3.226562 3.703125 3.53125 C 4.179688 3.84375 4.828125 4 5.640625 4 Z M 5.640625 4 "/></g></g></g><g fill="#7c6f64" fill-opacity="1"><g transform="translate(99.732715, 39.66039)"><g><path d="M 0.5 -1.28125 C 1 -1.28125 1.320312 -1.414062 1.46875 -1.6875 C 1.613281 -1.96875 1.6875 -2.421875 1.6875 -3.046875 L 1.6875 -11.171875 C 1.6875 -11.796875 1.710938 -12.367188 1.765625 -12.890625 L 0.375 -12.828125 L 0.375 -14.328125 C 1.207031 -14.328125 1.878906 -14.382812 2.390625 -14.5 C 2.898438 -14.625 3.238281 -14.765625 3.40625 -14.921875 L 4.484375 -14.921875 L 4.484375 -5.90625 L 5.4375 -5.90625 L 6.859375 -7.546875 C 7.265625 -8.015625 7.519531 -8.289062 7.625 -8.375 L 7.625 -8.40625 L 6.578125 -8.375 L 6.578125 -9.875 L 11.03125 -9.875 L 11.03125 -8.625 C 10.394531 -8.550781 9.851562 -8.375 9.40625 -8.09375 C 8.96875 -7.8125 8.570312 -7.46875 8.21875 -7.0625 L 6.953125 -5.65625 L 6.953125 -5.640625 C 7.171875 -5.523438 7.375 -5.378906 7.5625 -5.203125 C 7.75 -5.023438 7.976562 -4.757812 8.25 -4.40625 L 9.5625 -2.671875 C 9.90625 -2.242188 10.207031 -1.90625 10.46875 -1.65625 C 10.738281 -1.40625 11.046875 -1.28125 11.390625 -1.28125 L 11.390625 0 L 9.109375 0 C 8.710938 0 8.363281 -0.128906 8.0625 -0.390625 C 7.757812 -0.660156 7.378906 -1.101562 6.921875 -1.71875 C 6.421875 -2.394531 5.9375 -3.082031 5.46875 -3.78125 L 4.9375 -4.53125 L 4.484375 -4.5 L 4.484375 -3.1875 C 4.484375 -2.550781 4.457031 -1.96875 4.40625 -1.4375 C 4.832031 -1.476562 5.257812 -1.5 5.6875 -1.5 L 5.6875 0 L 0.5 0 Z M 0.5 -1.28125 "/></g></g></g><g fill="#7c6f64" fill-opacity="1"><g transform="translate(111.470527, 39.66039)"><g><path d="M 4.90625 0.3125 C 3.726562 0.3125 2.882812 -0.0234375 2.375 -0.703125 C 1.875 -1.390625 1.625 -2.503906 1.625 -4.046875 L 1.625 -6.328125 C 1.625 -6.878906 1.644531 -7.453125 1.6875 -8.046875 L 0.296875 -7.984375 L 0.296875 -9.484375 C 1.128906 -9.484375 1.800781 -9.539062 2.3125 -9.65625 C 2.820312 -9.78125 3.164062 -9.921875 3.34375 -10.078125 L 4.421875 -10.078125 L 4.421875 -4.03125 C 4.421875 -3.164062 4.53125 -2.523438 4.75 -2.109375 C 4.976562 -1.703125 5.335938 -1.5 5.828125 -1.5 C 6.160156 -1.5 6.5 -1.59375 6.84375 -1.78125 C 7.195312 -1.96875 7.492188 -2.191406 7.734375 -2.453125 L 7.734375 -6.328125 C 7.734375 -6.941406 7.757812 -7.515625 7.8125 -8.046875 L 6.421875 -7.984375 L 6.421875 -9.484375 C 7.253906 -9.484375 7.921875 -9.539062 8.421875 -9.65625 C 8.929688 -9.78125 9.273438 -9.921875 9.453125 -10.078125 L 10.53125 -10.078125 L 10.53125 -3.1875 C 10.53125 -2.550781 10.503906 -1.96875 10.453125 -1.4375 C 10.878906 -1.476562 11.304688 -1.5 11.734375 -1.5 L 11.734375 0 L 7.984375 0 L 7.859375 -1.03125 L 7.84375 -1.03125 C 7.351562 -0.601562 6.878906 -0.269531 6.421875 -0.03125 C 5.972656 0.195312 5.46875 0.3125 4.90625 0.3125 Z M 4.90625 0.3125 "/></g></g></g></svg>