<svg xmlns="http://www.w3.org/2000/svg" xmlns:xlink="http://www.w3.org/1999/xlink" width="170" zoomAndPan="magnify" viewBox="0 0 127.92 75.119995" height="90" preserveAspectRatio="xMidYMid meet" version="1.0"><defs><g/></defs><g fill="#7c6f64" fill-opacity="1"><g transform="translate(16.106869, 39.66039)"><g><path d="M 0.984375 -1.296875 C 1.335938 -1.316406 1.609375 -1.363281 1.796875 -1.4375 C 1.984375 -1.507812 2.128906 -1.660156 2.234375 -1.890625 C 2.335938 -2.128906 2.390625 -2.507812 2.390625 -3.03125 L 2.390625 -10.59375 C 2.390625 -11.332031 2.414062 -11.925781 2.46875 -12.375 L 0.984375 -12.3125 L 0.984375 -13.828125 L 6.734375 -13.859375 C 8.378906 -13.859375 9.769531 -13.53125 10.90625 -12.875 C 12.050781 -12.226562 12.90625 -11.382812 13.46875 -10.34375 C 14.03125 -9.300781 14.3125 -8.207031 14.3125 -7.0625 C 14.3125 -5.894531 14.039062 -4.773438 13.5 -3.703125 C 12.96875 -2.628906 12.125 -1.742188 10.96875 -1.046875 C 9.820312 -0.347656 8.378906 0 6.640625 0 L 0.984375 0 Z M 7.0625 -1.4375 C 7.976562 -1.4375 8.742188 -1.679688 9.359375 -2.171875 C 9.984375 -2.660156 10.441406 -3.296875 10.734375 -4.078125 C 11.035156 -4.859375 11.1875 -5.710938 11.1875 -6.640625 C 11.1875 -8.640625 10.773438 -10.117188 9.953125 -11.078125 C 9.140625 -12.046875 7.988281 -12.53125 6.5 -12.53125 C 6.050781 -12.53125 5.726562 -12.414062 5.53125 -12.1875 C 5.34375 -11.96875 5.25 -11.519531 5.25 -10.84375 L 5.25 -3.234375 C 5.25 -2.503906 5.222656 -1.914062 5.171875 -1.46875 C 5.242188 -1.476562 5.367188 -1.484375 5.546875 -1.484375 L 6.40625 -1.46875 C 6.570312 -1.445312 6.789062 -1.4375 7.0625 -1.4375 Z M 7.0625 -1.4375 "/></g></g></g><g fill="#7c6f64" fill-opacity="1"><g transform="translate(30.986607, 39.66039)"><g><path d="M 3.28125 0.3125 C 2.445312 0.3125 1.789062 0.0664062 1.3125 -0.421875 C 0.832031 -0.921875 0.59375 -1.550781 0.59375 -2.3125 C 0.59375 -3.46875 1.128906 -4.34375 2.203125 -4.9375 C 3.285156 -5.539062 4.585938 -5.878906 6.109375 -5.953125 L 6.109375 -6.984375 C 6.109375 -8.179688 5.660156 -8.78125 4.765625 -8.78125 C 4.179688 -8.78125 3.707031 -8.59375 3.34375 -8.21875 C 3.5 -8.039062 3.578125 -7.789062 3.578125 -7.46875 C 3.578125 -7.15625 3.46875 -6.875 3.25 -6.625 C 3.03125 -6.375 2.710938 -6.25 2.296875 -6.25 C 1.898438 -6.25 1.585938 -6.375 1.359375 -6.625 C 1.140625 -6.882812 1.03125 -7.207031 1.03125 -7.59375 C 1.03125 -8.101562 1.210938 -8.554688 1.578125 -8.953125 C 1.953125 -9.347656 2.457031 -9.65625 3.09375 -9.875 C 3.726562 -10.09375 4.429688 -10.203125 5.203125 -10.203125 C 7.640625 -10.203125 8.859375 -8.941406 8.859375 -6.421875 L 8.828125 -3.1875 C 8.828125 -2.550781 8.800781 -1.96875 8.75 -1.4375 C 9.1875 -1.476562 9.617188 -1.5 10.046875 -1.5 L 10.046875 0 L 6.3125 0 C 6.28125 -0.164062 6.25 -0.46875 6.21875 -0.90625 L 6.203125 -0.90625 C 5.398438 -0.09375 4.425781 0.3125 3.28125 0.3125 Z M 4.53125 -1.625 C 5.125 -1.625 5.644531 -1.859375 6.09375 -2.328125 L 6.09375 -4.546875 C 5.3125 -4.460938 4.664062 -4.265625 4.15625 -3.953125 C 3.65625 -3.640625 3.40625 -3.210938 3.40625 -2.671875 C 3.40625 -2.316406 3.507812 -2.050781 3.71875 -1.875 C 3.9375 -1.707031 4.207031 -1.625 4.53125 -1.625 Z M 4.53125 -1.625 "/></g></g></g><g fill="#7c6f64" fill-opacity="1"><g transform="translate(41.341171, 39.66039)"><g><path d="M 0.609375 3.75 C 1.109375 3.75 1.429688 3.609375 1.578125 3.328125 C 1.722656 3.054688 1.796875 2.613281 1.796875 2 L 1.796875 -6.359375 C 1.796875 -6.953125 1.820312 -7.515625 1.875 -8.046875 L 0.46875 -7.984375 L 0.46875 -9.484375 C 1.300781 -9.484375 1.972656 -9.539062 2.484375 -9.65625 C 3.003906 -9.78125 3.347656 -9.921875 3.515625 -10.078125 L 4.484375 -10.078125 C 4.515625 -9.859375 4.546875 -9.539062 4.578125 -9.125 L 4.609375 -9.125 C 5.421875 -9.84375 6.300781 -10.203125 7.25 -10.203125 C 8.039062 -10.203125 8.734375 -9.992188 9.328125 -9.578125 C 9.929688 -9.171875 10.398438 -8.585938 10.734375 -7.828125 C 11.078125 -7.078125 11.25 -6.203125 11.25 -5.203125 C 11.25 -4.140625 11.039062 -3.191406 10.625 -2.359375 C 10.21875 -1.523438 9.640625 -0.867188 8.890625 -0.390625 C 8.148438 0.078125 7.300781 0.3125 6.34375 0.3125 C 5.832031 0.3125 5.242188 0.191406 4.578125 -0.046875 L 4.578125 1.859375 C 4.578125 2.421875 4.5625 3 4.53125 3.59375 C 4.9375 3.550781 5.359375 3.53125 5.796875 3.53125 L 5.796875 5.046875 L 0.609375 5.046875 Z M 5.953125 -1.171875 C 7.546875 -1.171875 8.34375 -2.414062 8.34375 -4.90625 C 8.34375 -5.875 8.164062 -6.703125 7.8125 -7.390625 C 7.46875 -8.078125 6.945312 -8.421875 6.25 -8.421875 C 5.914062 -8.421875 5.597656 -8.34375 5.296875 -8.1875 C 5.003906 -8.03125 4.765625 -7.816406 4.578125 -7.546875 L 4.578125 -1.515625 C 4.710938 -1.429688 4.90625 -1.351562 5.15625 -1.28125 C 5.414062 -1.207031 5.679688 -1.171875 5.953125 -1.171875 Z M 5.953125 -1.171875 "/></g></g></g><g fill="#7c6f64" fill-opacity="1"><g transform="translate(53.217301, 39.66039)"><g><path d="M 4.90625 0.3125 C 3.726562 0.3125 2.882812 -0.0234375 2.375 -0.703125 C 1.875 -1.390625 1.625 -2.503906 1.625 -4.046875 L 1.625 -6.328125 C 1.625 -6.878906 1.644531 -7.453125 1.6875 -8.046875 L 0.296875 -7.984375 L 0.296875 -9.484375 C 1.128906 -9.484375 1.800781 -9.539062 2.3125 -9.65625 C 2.820312 -9.78125 3.164062 -9.921875 3.34375 -10.078125 L 4.421875 -10.078125 L 4.421875 -4.03125 C 4.421875 -3.164062 4.53125 -2.523438 4.75 -2.109375 C 4.976562 -1.703125 5.335938 -1.5 5.828125 -1.5 C 6.160156 -1.5 6.5 -1.59375 6.84375 -1.78125 C 7.195312 -1.96875 7.492188 -2.191406 7.734375 -2.453125 L 7.734375 -6.328125 C 7.734375 -6.941406 7.757812 -7.515625 7.8125 -8.046875 L 6.421875 -7.984375 L 6.421875 -9.484375 C 7.253906 -9.484375 7.921875 -9.539062 8.421875 -9.65625 C 8.929688 -9.78125 9.273438 -9.921875 9.453125 -10.078125 L 10.53125 -10.078125 L 10.53125 -3.1875 C 10.53125 -2.550781 10.503906 -1.96875 10.453125 -1.4375 C 10.878906 -1.476562 11.304688 -1.5 11.734375 -1.5 L 11.734375 0 L 7.984375 0 L 7.859375 -1.03125 L 7.84375 -1.03125 C 7.351562 -0.601562 6.878906 -0.269531 6.421875 -0.03125 C 5.972656 0.195312 5.46875 0.3125 4.90625 0.3125 Z M 4.90625 0.3125 "/></g></g></g><g fill="#7c6f64" fill-opacity="1"><g transform="translate(65.429362, 39.66039)"><g><path d="M 0.8125 -1.28125 C 1.3125 -1.28125 1.628906 -1.414062 1.765625 -1.6875 C 1.898438 -1.96875 1.96875 -2.421875 1.96875 -3.046875 L 1.96875 -6.359375 C 1.96875 -6.953125 2 -7.515625 2.0625 -8.046875 L 0.671875 -7.984375 L 0.671875 -9.484375 C 1.503906 -9.484375 2.175781 -9.539062 2.6875 -9.65625 C 3.195312 -9.78125 3.539062 -9.921875 3.71875 -10.078125 L 4.6875 -10.078125 C 4.707031 -9.878906 4.722656 -9.617188 4.734375 -9.296875 C 4.753906 -8.984375 4.765625 -8.675781 4.765625 -8.375 L 4.796875 -8.375 C 5.691406 -9.59375 6.644531 -10.203125 7.65625 -10.203125 C 8.15625 -10.203125 8.566406 -10.0625 8.890625 -9.78125 C 9.210938 -9.507812 9.375 -9.101562 9.375 -8.5625 C 9.375 -8.21875 9.257812 -7.898438 9.03125 -7.609375 C 8.8125 -7.316406 8.476562 -7.171875 8.03125 -7.171875 C 7.695312 -7.171875 7.398438 -7.253906 7.140625 -7.421875 C 6.890625 -7.597656 6.742188 -7.898438 6.703125 -8.328125 C 6.328125 -8.328125 5.945312 -8.109375 5.5625 -7.671875 C 5.175781 -7.242188 4.914062 -6.820312 4.78125 -6.40625 L 4.78125 -3.1875 C 4.78125 -2.550781 4.753906 -1.96875 4.703125 -1.4375 C 5.128906 -1.476562 5.554688 -1.5 5.984375 -1.5 L 5.984375 0 L 0.8125 0 Z M 0.8125 -1.28125 "/></g></g></g><g fill="#7c6f64" fill-opacity="1"><g transform="translate(74.914461, 39.66039)"><g/></g></g><g fill="#7c6f64" fill-opacity="1"><g transform="translate(80.11151, 39.66039)"><g><path d="M 0.984375 -1.296875 C 1.335938 -1.316406 1.609375 -1.363281 1.796875 -1.4375 C 1.984375 -1.507812 2.128906 -1.660156 2.234375 -1.890625 C 2.335938 -2.128906 2.390625 -2.507812 2.390625 -3.03125 L 2.390625 -10.59375 C 2.390625 -11.332031 2.414062 -11.925781 2.46875 -12.375 L 0.984375 -12.3125 L 0.984375 -13.828125 L 6.65625 -13.828125 L 6.65625 -12.53125 C 6.300781 -12.519531 6.03125 -12.476562 5.84375 -12.40625 C 5.664062 -12.332031 5.519531 -12.175781 5.40625 -11.9375 C 5.300781 -11.695312 5.25 -11.320312 5.25 -10.8125 L 5.25 -3.234375 C 5.25 -2.503906 5.222656 -1.914062 5.171875 -1.46875 C 5.597656 -1.5 6.09375 -1.515625 6.65625 -1.515625 L 6.65625 0 L 0.984375 0 Z M 0.984375 -1.296875 "/></g></g></g><g fill="#7c6f64" fill-opacity="1"><g transform="translate(87.758873, 39.66039)"><g><path d="M 5.890625 0.3125 C 5.429688 0.3125 4.941406 0.222656 4.421875 0.046875 C 3.898438 -0.128906 3.4375 -0.4375 3.03125 -0.875 L 3 -0.875 L 2.4375 0 L 1.25 0 L 1.25 -11.171875 C 1.25 -11.929688 1.265625 -12.503906 1.296875 -12.890625 L -0.078125 -12.828125 L -0.078125 -14.328125 C 0.753906 -14.328125 1.425781 -14.382812 1.9375 -14.5 C 2.445312 -14.625 2.789062 -14.765625 2.96875 -14.921875 L 4.03125 -14.921875 L 4.03125 -9.125 C 4.832031 -9.84375 5.722656 -10.203125 6.703125 -10.203125 C 7.492188 -10.203125 8.1875 -9.992188 8.78125 -9.578125 C 9.382812 -9.171875 9.851562 -8.585938 10.1875 -7.828125 C 10.519531 -7.078125 10.6875 -6.203125 10.6875 -5.203125 C 10.6875 -4.128906 10.492188 -3.175781 10.109375 -2.34375 C 9.722656 -1.519531 9.164062 -0.867188 8.4375 -0.390625 C 7.71875 0.078125 6.867188 0.3125 5.890625 0.3125 Z M 5.546875 -1.125 C 6.335938 -1.125 6.90625 -1.476562 7.25 -2.1875 C 7.601562 -2.90625 7.78125 -3.8125 7.78125 -4.90625 C 7.78125 -5.875 7.601562 -6.703125 7.25 -7.390625 C 6.90625 -8.078125 6.382812 -8.421875 5.6875 -8.421875 C 5.363281 -8.421875 5.050781 -8.34375 4.75 -8.1875 C 4.457031 -8.039062 4.21875 -7.832031 4.03125 -7.5625 L 4.03125 -2.96875 C 4.03125 -2.320312 4.175781 -1.851562 4.46875 -1.5625 C 4.769531 -1.269531 5.128906 -1.125 5.546875 -1.125 Z M 5.546875 -1.125 "/></g></g></g><g fill="#7c6f64" fill-opacity="1"><g transform="translate(99.081708, 39.66039)"><g><path d="M 4.90625 0.3125 C 3.726562 0.3125 2.882812 -0.0234375 2.375 -0.703125 C 1.875 -1.390625 1.625 -2.503906 1.625 -4.046875 L 1.625 -6.328125 C 1.625 -6.878906 1.644531 -7.453125 1.6875 -8.046875 L 0.296875 -7.984375 L 0.296875 -9.484375 C 1.128906 -9.484375 1.800781 -9.539062 2.3125 -9.65625 C 2.820312 -9.78125 3.164062 -9.921875 3.34375 -10.078125 L 4.421875 -10.078125 L 4.421875 -4.03125 C 4.421875 -3.164062 4.53125 -2.523438 4.75 -2.109375 C 4.976562 -1.703125 5.335938 -1.5 5.828125 -1.5 C 6.160156 -1.5 6.5 -1.59375 6.84375 -1.78125 C 7.195312 -1.96875 7.492188 -2.191406 7.734375 -2.453125 L 7.734375 -6.328125 C 7.734375 -6.941406 7.757812 -7.515625 7.8125 -8.046875 L 6.421875 -7.984375 L 6.421875 -9.484375 C 7.253906 -9.484375 7.921875 -9.539062 8.421875 -9.65625 C 8.929688 -9.78125 9.273438 -9.921875 9.453125 -10.078125 L 10.53125 -10.078125 L 10.53125 -3.1875 C 10.53125 -2.550781 10.503906 -1.96875 10.453125 -1.4375 C 10.878906 -1.476562 11.304688 -1.5 11.734375 -1.5 L 11.734375 0 L 7.984375 0 L 7.859375 -1.03125 L 7.84375 -1.03125 C 7.351562 -0.601562 6.878906 -0.269531 6.421875 -0.03125 C 5.972656 0.195312 5.46875 0.3125 4.90625 0.3125 Z M 4.90625 0.3125 "/></g></g></g></svg>