<svg xmlns="http://www.w3.org/2000/svg" xmlns:xlink="http://www.w3.org/1999/xlink" width="170" zoomAndPan="magnify" viewBox="0 0 127.92 75.119995" height="90" preserveAspectRatio="xMidYMid meet" version="1.0"><defs><g/></defs><g fill="#7c6f64" fill-opacity="1"><g transform="translate(9.232024, 39.66039)"><g><path d="M 0.984375 -1.296875 C 1.335938 -1.316406 1.609375 -1.363281 1.796875 -1.4375 C 1.984375 -1.507812 2.128906 -1.660156 2.234375 -1.890625 C 2.335938 -2.128906 2.390625 -2.507812 2.390625 -3.03125 L 2.390625 -10.59375 C 2.390625 -11.332031 2.414062 -11.925781 2.46875 -12.375 L 0.984375 -12.3125 L 0.984375 -13.828125 L 6.65625 -13.828125 L 6.65625 -12.53125 C 6.300781 -12.519531 6.03125 -12.476562 5.84375 -12.40625 C 5.664062 -12.332031 5.519531 -12.175781 5.40625 -11.9375 C 5.300781 -11.695312 5.25 -11.320312 5.25 -10.8125 L 5.25 -7.734375 L 10.6875 -7.734375 L 10.6875 -10.59375 C 10.6875 -11.476562 10.710938 -12.070312 10.765625 -12.375 L 9.296875 -12.3125 L 9.296875 -13.828125 L 14.96875 -13.828125 L 14.96875 -12.53125 C 14.601562 -12.519531 14.328125 -12.476562 14.140625 -12.40625 C 13.960938 -12.332031 13.820312 -12.175781 13.71875 -11.9375 C 13.613281 -11.695312 13.5625 -11.320312 13.5625 -10.8125 L 13.5625 -3.234375 C 13.5625 -2.503906 13.535156 -1.914062 13.484375 -1.46875 C 13.898438 -1.5 14.394531 -1.515625 14.96875 -1.515625 L 14.96875 0 L 9.296875 0 L 9.296875 -1.296875 C 9.648438 -1.316406 9.914062 -1.363281 10.09375 -1.4375 C 10.28125 -1.507812 10.425781 -1.660156 10.53125 -1.890625 C 10.632812 -2.128906 10.6875 -2.507812 10.6875 -3.03125 L 10.6875 -6.21875 L 5.25 -6.171875 L 5.25 -3.234375 C 5.25 -2.503906 5.222656 -1.914062 5.171875 -1.46875 C 5.597656 -1.5 6.09375 -1.515625 6.65625 -1.515625 L 6.65625 0 L 0.984375 0 Z M 0.984375 -1.296875 "/></g></g></g><g fill="#7c6f64" fill-opacity="1"><g transform="translate(24.665001, 39.66039)"><g><path d="M 5.5 0.3125 C 4.53125 0.3125 3.675781 0.0976562 2.9375 -0.328125 C 2.207031 -0.753906 1.632812 -1.363281 1.21875 -2.15625 C 0.8125 -2.945312 0.609375 -3.867188 0.609375 -4.921875 C 0.609375 -5.847656 0.816406 -6.710938 1.234375 -7.515625 C 1.648438 -8.328125 2.234375 -8.976562 2.984375 -9.46875 C 3.734375 -9.957031 4.585938 -10.203125 5.546875 -10.203125 C 6.828125 -10.203125 7.890625 -9.828125 8.734375 -9.078125 C 9.585938 -8.328125 10.007812 -7.070312 10 -5.3125 L 3.515625 -5.203125 C 3.515625 -4.035156 3.734375 -3.113281 4.171875 -2.4375 C 4.617188 -1.769531 5.332031 -1.4375 6.3125 -1.4375 C 6.769531 -1.4375 7.257812 -1.554688 7.78125 -1.796875 C 8.3125 -2.035156 8.785156 -2.410156 9.203125 -2.921875 L 10.09375 -2.09375 C 8.976562 -0.488281 7.445312 0.3125 5.5 0.3125 Z M 7.28125 -6.578125 C 7.238281 -8.066406 6.695312 -8.8125 5.65625 -8.8125 C 5.082031 -8.8125 4.628906 -8.609375 4.296875 -8.203125 C 3.960938 -7.804688 3.742188 -7.265625 3.640625 -6.578125 Z M 7.28125 -6.578125 "/></g></g></g><g fill="#7c6f64" fill-opacity="1"><g transform="translate(35.296212, 39.66039)"><g><path d="M 0.8125 -1.28125 C 1.3125 -1.28125 1.628906 -1.414062 1.765625 -1.6875 C 1.898438 -1.96875 1.96875 -2.421875 1.96875 -3.046875 L 1.96875 -6.359375 C 1.96875 -6.953125 2 -7.515625 2.0625 -8.046875 L 0.671875 -7.984375 L 0.671875 -9.484375 C 1.503906 -9.484375 2.175781 -9.539062 2.6875 -9.65625 C 3.195312 -9.78125 3.539062 -9.921875 3.71875 -10.078125 L 4.6875 -10.078125 C 4.6875 -10.054688 4.710938 -9.726562 4.765625 -9.09375 L 4.796875 -9.09375 C 5.210938 -9.425781 5.675781 -9.691406 6.1875 -9.890625 C 6.695312 -10.097656 7.195312 -10.203125 7.6875 -10.203125 C 8.28125 -10.203125 8.773438 -10.09375 9.171875 -9.875 C 9.578125 -9.65625 9.898438 -9.328125 10.140625 -8.890625 C 10.609375 -9.285156 11.132812 -9.601562 11.71875 -9.84375 C 12.300781 -10.082031 12.847656 -10.203125 13.359375 -10.203125 C 14.453125 -10.203125 15.265625 -9.882812 15.796875 -9.25 C 16.335938 -8.613281 16.609375 -7.5625 16.609375 -6.09375 L 16.609375 -3.1875 C 16.609375 -2.550781 16.582031 -1.96875 16.53125 -1.4375 C 16.945312 -1.476562 17.375 -1.5 17.8125 -1.5 L 17.8125 0 L 12.8125 0 L 12.8125 -1.28125 C 13.226562 -1.28125 13.492188 -1.421875 13.609375 -1.703125 C 13.734375 -1.992188 13.796875 -2.441406 13.796875 -3.046875 L 13.796875 -6.0625 C 13.785156 -6.894531 13.644531 -7.484375 13.375 -7.828125 C 13.113281 -8.179688 12.734375 -8.359375 12.234375 -8.359375 C 11.648438 -8.359375 11.082031 -8.140625 10.53125 -7.703125 C 10.65625 -7.179688 10.71875 -6.554688 10.71875 -5.828125 L 10.71875 -3.1875 C 10.71875 -2.550781 10.691406 -1.96875 10.640625 -1.4375 C 11.054688 -1.476562 11.484375 -1.5 11.921875 -1.5 L 11.921875 0 L 6.8125 0 L 6.8125 -1.28125 C 7.28125 -1.28125 7.578125 -1.414062 7.703125 -1.6875 C 7.835938 -1.96875 7.90625 -2.421875 7.90625 -3.046875 L 7.890625 -6.125 C 7.890625 -6.945312 7.769531 -7.523438 7.53125 -7.859375 C 7.289062 -8.191406 6.9375 -8.363281 6.46875 -8.375 C 5.882812 -8.375 5.320312 -8.132812 4.78125 -7.65625 L 4.78125 -3.1875 C 4.78125 -2.550781 4.753906 -1.96875 4.703125 -1.4375 C 5.128906 -1.476562 5.523438 -1.5 5.890625 -1.5 L 5.890625 0 L 0.8125 0 Z M 0.8125 -1.28125 "/></g></g></g><g fill="#7c6f64" fill-opacity="1"><g transform="translate(53.475991, 39.66039)"><g><path d="M 3.28125 0.3125 C 2.445312 0.3125 1.789062 0.0664062 1.3125 -0.421875 C 0.832031 -0.921875 0.59375 -1.550781 0.59375 -2.3125 C 0.59375 -3.46875 1.128906 -4.34375 2.203125 -4.9375 C 3.285156 -5.539062 4.585938 -5.878906 6.109375 -5.953125 L 6.109375 -6.984375 C 6.109375 -8.179688 5.660156 -8.78125 4.765625 -8.78125 C 4.179688 -8.78125 3.707031 -8.59375 3.34375 -8.21875 C 3.5 -8.039062 3.578125 -7.789062 3.578125 -7.46875 C 3.578125 -7.15625 3.46875 -6.875 3.25 -6.625 C 3.03125 -6.375 2.710938 -6.25 2.296875 -6.25 C 1.898438 -6.25 1.585938 -6.375 1.359375 -6.625 C 1.140625 -6.882812 1.03125 -7.207031 1.03125 -7.59375 C 1.03125 -8.101562 1.210938 -8.554688 1.578125 -8.953125 C 1.953125 -9.347656 2.457031 -9.65625 3.09375 -9.875 C 3.726562 -10.09375 4.429688 -10.203125 5.203125 -10.203125 C 7.640625 -10.203125 8.859375 -8.941406 8.859375 -6.421875 L 8.828125 -3.1875 C 8.828125 -2.550781 8.800781 -1.96875 8.75 -1.4375 C 9.1875 -1.476562 9.617188 -1.5 10.046875 -1.5 L 10.046875 0 L 6.3125 0 C 6.28125 -0.164062 6.25 -0.46875 6.21875 -0.90625 L 6.203125 -0.90625 C 5.398438 -0.09375 4.425781 0.3125 3.28125 0.3125 Z M 4.53125 -1.625 C 5.125 -1.625 5.644531 -1.859375 6.09375 -2.328125 L 6.09375 -4.546875 C 5.3125 -4.460938 4.664062 -4.265625 4.15625 -3.953125 C 3.65625 -3.640625 3.40625 -3.210938 3.40625 -2.671875 C 3.40625 -2.316406 3.507812 -2.050781 3.71875 -1.875 C 3.9375 -1.707031 4.207031 -1.625 4.53125 -1.625 Z M 4.53125 -1.625 "/></g></g></g><g fill="#7c6f64" fill-opacity="1"><g transform="translate(63.751498, 39.66039)"><g><path d="M 4.71875 0.3125 C 2.664062 0.3125 1.640625 -0.953125 1.640625 -3.484375 L 1.6875 -8.25 L 0.34375 -8.25 L 0.34375 -9.875 C 0.757812 -9.875 1.15625 -10.003906 1.53125 -10.265625 C 1.90625 -10.535156 2.222656 -10.859375 2.484375 -11.234375 C 2.753906 -11.617188 2.941406 -11.992188 3.046875 -12.359375 L 4.5 -12.359375 L 4.484375 -9.875 L 7 -9.875 L 7 -8.359375 L 4.484375 -8.296875 L 4.46875 -3.4375 C 4.46875 -2.15625 4.863281 -1.515625 5.65625 -1.515625 C 6.289062 -1.515625 6.890625 -1.910156 7.453125 -2.703125 L 8.40625 -1.8125 C 7.78125 -0.90625 7.15625 -0.320312 6.53125 -0.0625 C 5.914062 0.1875 5.3125 0.3125 4.71875 0.3125 Z M 4.71875 0.3125 "/></g></g></g><g fill="#7c6f64" fill-opacity="1"><g transform="translate(71.912633, 39.66039)"><g/></g></g><g fill="#7c6f64" fill-opacity="1"><g transform="translate(77.109682, 39.66039)"><g><path d="M 4.015625 -1.296875 C 4.367188 -1.316406 4.632812 -1.363281 4.8125 -1.4375 C 5 -1.507812 5.144531 -1.660156 5.25 -1.890625 C 5.363281 -2.128906 5.421875 -2.507812 5.421875 -3.03125 L 5.421875 -4.75 L 1.78125 -10.5 C 1.582031 -10.820312 1.40625 -11.160156 1.25 -11.515625 C 1.101562 -11.878906 1.03125 -12.164062 1.03125 -12.375 L 0.0625 -12.3125 L 0.0625 -13.828125 L 5.890625 -13.828125 L 5.890625 -12.53125 C 5.460938 -12.5625 5.117188 -12.507812 4.859375 -12.375 C 4.609375 -12.238281 4.484375 -12.035156 4.484375 -11.765625 C 4.484375 -11.523438 4.5625 -11.273438 4.71875 -11.015625 L 6.21875 -8.53125 C 6.257812 -8.46875 6.410156 -8.210938 6.671875 -7.765625 C 6.929688 -7.316406 7.117188 -6.9375 7.234375 -6.625 L 7.25 -6.625 C 7.289062 -6.71875 7.335938 -6.816406 7.390625 -6.921875 C 7.441406 -7.035156 7.5 -7.164062 7.5625 -7.3125 C 7.894531 -7.96875 8.101562 -8.382812 8.1875 -8.5625 L 9.203125 -10.578125 C 9.617188 -11.441406 9.972656 -12.039062 10.265625 -12.375 L 10.265625 -12.390625 L 9.234375 -12.328125 L 8.734375 -12.3125 L 8.734375 -13.828125 L 13.109375 -13.828125 L 13.109375 -12.53125 C 12.640625 -12.46875 12.238281 -12.28125 11.90625 -11.96875 C 11.582031 -11.65625 11.226562 -11.140625 10.84375 -10.421875 L 8.28125 -5.46875 L 8.28125 -3.234375 C 8.28125 -2.503906 8.253906 -1.914062 8.203125 -1.46875 C 8.640625 -1.5 9.164062 -1.515625 9.78125 -1.515625 L 9.78125 0 L 4.015625 0 Z M 4.015625 -1.296875 "/></g></g></g><g fill="#7c6f64" fill-opacity="1"><g transform="translate(89.123971, 39.66039)"><g><path d="M 4.90625 0.3125 C 3.726562 0.3125 2.882812 -0.0234375 2.375 -0.703125 C 1.875 -1.390625 1.625 -2.503906 1.625 -4.046875 L 1.625 -6.328125 C 1.625 -6.878906 1.644531 -7.453125 1.6875 -8.046875 L 0.296875 -7.984375 L 0.296875 -9.484375 C 1.128906 -9.484375 1.800781 -9.539062 2.3125 -9.65625 C 2.820312 -9.78125 3.164062 -9.921875 3.34375 -10.078125 L 4.421875 -10.078125 L 4.421875 -4.03125 C 4.421875 -3.164062 4.53125 -2.523438 4.75 -2.109375 C 4.976562 -1.703125 5.335938 -1.5 5.828125 -1.5 C 6.160156 -1.5 6.5 -1.59375 6.84375 -1.78125 C 7.195312 -1.96875 7.492188 -2.191406 7.734375 -2.453125 L 7.734375 -6.328125 C 7.734375 -6.941406 7.757812 -7.515625 7.8125 -8.046875 L 6.421875 -7.984375 L 6.421875 -9.484375 C 7.253906 -9.484375 7.921875 -9.539062 8.421875 -9.65625 C 8.929688 -9.78125 9.273438 -9.921875 9.453125 -10.078125 L 10.53125 -10.078125 L 10.53125 -3.1875 C 10.53125 -2.550781 10.503906 -1.96875 10.453125 -1.4375 C 10.878906 -1.476562 11.304688 -1.5 11.734375 -1.5 L 11.734375 0 L 7.984375 0 L 7.859375 -1.03125 L 7.84375 -1.03125 C 7.351562 -0.601562 6.878906 -0.269531 6.421875 -0.03125 C 5.972656 0.195312 5.46875 0.3125 4.90625 0.3125 Z M 4.90625 0.3125 "/></g></g></g><g fill="#7c6f64" fill-opacity="1"><g transform="translate(101.336032, 39.66039)"><g><path d="M 0.5 -1.28125 C 1 -1.28125 1.320312 -1.414062 1.46875 -1.6875 C 1.613281 -1.96875 1.6875 -2.421875 1.6875 -3.046875 L 1.6875 -11.171875 C 1.6875 -11.796875 1.710938 -12.367188 1.765625 -12.890625 L 0.375 -12.828125 L 0.375 -14.328125 C 1.207031 -14.328125 1.878906 -14.382812 2.390625 -14.5 C 2.898438 -14.625 3.238281 -14.765625 3.40625 -14.921875 L 4.484375 -14.921875 L 4.484375 -5.90625 L 5.4375 -5.90625 L 6.859375 -7.546875 C 7.265625 -8.015625 7.519531 -8.289062 7.625 -8.375 L 7.625 -8.40625 L 6.578125 -8.375 L 6.578125 -9.875 L 11.03125 -9.875 L 11.03125 -8.625 C 10.394531 -8.550781 9.851562 -8.375 9.40625 -8.09375 C 8.96875 -7.8125 8.570312 -7.46875 8.21875 -7.0625 L 6.953125 -5.65625 L 6.953125 -5.640625 C 7.171875 -5.523438 7.375 -5.378906 7.5625 -5.203125 C 7.75 -5.023438 7.976562 -4.757812 8.25 -4.40625 L 9.5625 -2.671875 C 9.90625 -2.242188 10.207031 -1.90625 10.46875 -1.65625 C 10.738281 -1.40625 11.046875 -1.28125 11.390625 -1.28125 L 11.390625 0 L 9.109375 0 C 8.710938 0 8.363281 -0.128906 8.0625 -0.390625 C 7.757812 -0.660156 7.378906 -1.101562 6.921875 -1.71875 C 6.421875 -2.394531 5.9375 -3.082031 5.46875 -3.78125 L 4.9375 -4.53125 L 4.484375 -4.5 L 4.484375 -3.1875 C 4.484375 -2.550781 4.457031 -1.96875 4.40625 -1.4375 C 4.832031 -1.476562 5.257812 -1.5 5.6875 -1.5 L 5.6875 0 L 0.5 0 Z M 0.5 -1.28125 "/></g></g></g><g fill="#7c6f64" fill-opacity="1"><g transform="translate(113.073844, 39.66039)"><g><path d="M 1.125 -12.359375 C 1.082031 -12.816406 1.191406 -13.226562 1.453125 -13.59375 C 1.710938 -13.96875 2.078125 -14.15625 2.546875 -14.15625 C 3.046875 -14.15625 3.414062 -13.972656 3.65625 -13.609375 C 3.894531 -13.242188 3.992188 -12.828125 3.953125 -12.359375 L 3.21875 -4.203125 L 1.875 -4.203125 Z M 2.53125 0.3125 C 2.144531 0.3125 1.8125 0.160156 1.53125 -0.140625 C 1.25 -0.441406 1.109375 -0.800781 1.109375 -1.21875 C 1.109375 -1.644531 1.25 -2.007812 1.53125 -2.3125 C 1.820312 -2.613281 2.160156 -2.765625 2.546875 -2.765625 C 2.953125 -2.765625 3.289062 -2.613281 3.5625 -2.3125 C 3.832031 -2.007812 3.96875 -1.644531 3.96875 -1.21875 C 3.96875 -0.800781 3.820312 -0.441406 3.53125 -0.140625 C 3.25 0.160156 2.914062 0.3125 2.53125 0.3125 Z M 2.53125 0.3125 "/></g></g></g></svg>