<svg xmlns="http://www.w3.org/2000/svg" xmlns:xlink="http://www.w3.org/1999/xlink" width="170" zoomAndPan="magnify" viewBox="0 0 127.92 75.119995" height="90" preserveAspectRatio="xMidYMid meet" version="1.0"><defs><g/></defs><g fill="#7c6f64" fill-opacity="1"><g transform="translate(33.911079, 31.13526)"><g><path d="M 0.984375 -1.296875 C 1.335938 -1.316406 1.609375 -1.363281 1.796875 -1.4375 C 1.984375 -1.507812 2.128906 -1.660156 2.234375 -1.890625 C 2.335938 -2.128906 2.390625 -2.507812 2.390625 -3.03125 L 2.390625 -10.59375 C 2.390625 -11.332031 2.414062 -11.925781 2.46875 -12.375 L 0.984375 -12.3125 L 0.984375 -13.828125 L 6.609375 -13.875 C 8.410156 -13.882812 9.800781 -13.566406 10.78125 -12.921875 C 11.757812 -12.273438 12.25 -11.226562 12.25 -9.78125 C 12.25 -8.875 11.957031 -8.066406 11.375 -7.359375 C 10.789062 -6.660156 9.925781 -6.144531 8.78125 -5.8125 L 8.78125 -5.796875 C 9.007812 -5.703125 9.25 -5.539062 9.5 -5.3125 C 9.75 -5.082031 9.960938 -4.828125 10.140625 -4.546875 L 11.0625 -3.15625 C 11.507812 -2.457031 11.878906 -1.976562 12.171875 -1.71875 C 12.472656 -1.457031 12.84375 -1.316406 13.28125 -1.296875 L 13.28125 0 L 10.015625 0 C 9.796875 -0.15625 9.570312 -0.378906 9.34375 -0.671875 C 9.125 -0.972656 8.867188 -1.367188 8.578125 -1.859375 L 7.109375 -4.234375 C 6.785156 -4.753906 6.507812 -5.132812 6.28125 -5.375 L 5.25 -5.375 L 5.25 -3.265625 C 5.25 -2.515625 5.222656 -1.914062 5.171875 -1.46875 C 5.597656 -1.5 6.160156 -1.515625 6.859375 -1.515625 L 6.859375 0 L 0.984375 0 Z M 6.203125 -6.796875 C 7.285156 -6.796875 8.066406 -7.035156 8.546875 -7.515625 C 9.023438 -8.003906 9.265625 -8.757812 9.265625 -9.78125 C 9.265625 -10.875 8.984375 -11.597656 8.421875 -11.953125 C 7.867188 -12.304688 7.253906 -12.484375 6.578125 -12.484375 C 6.117188 -12.484375 5.78125 -12.382812 5.5625 -12.1875 C 5.351562 -12 5.25 -11.582031 5.25 -10.9375 L 5.25 -6.875 C 5.644531 -6.820312 5.960938 -6.796875 6.203125 -6.796875 Z M 6.203125 -6.796875 "/></g></g></g><g fill="#7c6f64" fill-opacity="1"><g transform="translate(47.348287, 31.13526)"><g><path d="M 4.90625 0.3125 C 3.726562 0.3125 2.882812 -0.0234375 2.375 -0.703125 C 1.875 -1.390625 1.625 -2.503906 1.625 -4.046875 L 1.625 -6.328125 C 1.625 -6.878906 1.644531 -7.453125 1.6875 -8.046875 L 0.296875 -7.984375 L 0.296875 -9.484375 C 1.128906 -9.484375 1.800781 -9.539062 2.3125 -9.65625 C 2.820312 -9.78125 3.164062 -9.921875 3.34375 -10.078125 L 4.421875 -10.078125 L 4.421875 -4.03125 C 4.421875 -3.164062 4.53125 -2.523438 4.75 -2.109375 C 4.976562 -1.703125 5.335938 -1.5 5.828125 -1.5 C 6.160156 -1.5 6.5 -1.59375 6.84375 -1.78125 C 7.195312 -1.96875 7.492188 -2.191406 7.734375 -2.453125 L 7.734375 -6.328125 C 7.734375 -6.941406 7.757812 -7.515625 7.8125 -8.046875 L 6.421875 -7.984375 L 6.421875 -9.484375 C 7.253906 -9.484375 7.921875 -9.539062 8.421875 -9.65625 C 8.929688 -9.78125 9.273438 -9.921875 9.453125 -10.078125 L 10.53125 -10.078125 L 10.53125 -3.1875 C 10.53125 -2.550781 10.503906 -1.96875 10.453125 -1.4375 C 10.878906 -1.476562 11.304688 -1.5 11.734375 -1.5 L 11.734375 0 L 7.984375 0 L 7.859375 -1.03125 L 7.84375 -1.03125 C 7.351562 -0.601562 6.878906 -0.269531 6.421875 -0.03125 C 5.972656 0.195312 5.46875 0.3125 4.90625 0.3125 Z M 4.90625 0.3125 "/></g></g></g><g fill="#7c6f64" fill-opacity="1"><g transform="translate(59.560348, 31.13526)"><g><path d="M 3.28125 0.3125 C 2.445312 0.3125 1.789062 0.0664062 1.3125 -0.421875 C 0.832031 -0.921875 0.59375 -1.550781 0.59375 -2.3125 C 0.59375 -3.46875 1.128906 -4.34375 2.203125 -4.9375 C 3.285156 -5.539062 4.585938 -5.878906 6.109375 -5.953125 L 6.109375 -6.984375 C 6.109375 -8.179688 5.660156 -8.78125 4.765625 -8.78125 C 4.179688 -8.78125 3.707031 -8.59375 3.34375 -8.21875 C 3.5 -8.039062 3.578125 -7.789062 3.578125 -7.46875 C 3.578125 -7.15625 3.46875 -6.875 3.25 -6.625 C 3.03125 -6.375 2.710938 -6.25 2.296875 -6.25 C 1.898438 -6.25 1.585938 -6.375 1.359375 -6.625 C 1.140625 -6.882812 1.03125 -7.207031 1.03125 -7.59375 C 1.03125 -8.101562 1.210938 -8.554688 1.578125 -8.953125 C 1.953125 -9.347656 2.457031 -9.65625 3.09375 -9.875 C 3.726562 -10.09375 4.429688 -10.203125 5.203125 -10.203125 C 7.640625 -10.203125 8.859375 -8.941406 8.859375 -6.421875 L 8.828125 -3.1875 C 8.828125 -2.550781 8.800781 -1.96875 8.75 -1.4375 C 9.1875 -1.476562 9.617188 -1.5 10.046875 -1.5 L 10.046875 0 L 6.3125 0 C 6.28125 -0.164062 6.25 -0.46875 6.21875 -0.90625 L 6.203125 -0.90625 C 5.398438 -0.09375 4.425781 0.3125 3.28125 0.3125 Z M 4.53125 -1.625 C 5.125 -1.625 5.644531 -1.859375 6.09375 -2.328125 L 6.09375 -4.546875 C 5.3125 -4.460938 4.664062 -4.265625 4.15625 -3.953125 C 3.65625 -3.640625 3.40625 -3.210938 3.40625 -2.671875 C 3.40625 -2.316406 3.507812 -2.050781 3.71875 -1.875 C 3.9375 -1.707031 4.207031 -1.625 4.53125 -1.625 Z M 4.53125 -1.625 "/></g></g></g><g fill="#7c6f64" fill-opacity="1"><g transform="translate(69.914911, 31.13526)"><g><path d="M 0.8125 -1.28125 C 1.3125 -1.28125 1.628906 -1.414062 1.765625 -1.6875 C 1.898438 -1.96875 1.96875 -2.421875 1.96875 -3.046875 L 1.96875 -6.359375 C 1.96875 -6.953125 2 -7.515625 2.0625 -8.046875 L 0.671875 -7.984375 L 0.671875 -9.484375 C 1.503906 -9.484375 2.175781 -9.539062 2.6875 -9.65625 C 3.195312 -9.78125 3.539062 -9.921875 3.71875 -10.078125 L 4.6875 -10.078125 C 4.6875 -10.054688 4.710938 -9.726562 4.765625 -9.09375 L 4.796875 -9.09375 C 5.179688 -9.394531 5.65625 -9.65625 6.21875 -9.875 C 6.78125 -10.09375 7.257812 -10.203125 7.65625 -10.203125 C 8.851562 -10.203125 9.707031 -9.859375 10.21875 -9.171875 C 10.726562 -8.484375 10.984375 -7.367188 10.984375 -5.828125 L 10.984375 -3.1875 C 10.984375 -2.550781 10.957031 -1.96875 10.90625 -1.4375 C 11.34375 -1.476562 11.773438 -1.5 12.203125 -1.5 L 12.203125 0 L 7.015625 0 L 7.015625 -1.28125 C 7.515625 -1.28125 7.835938 -1.414062 7.984375 -1.6875 C 8.128906 -1.96875 8.203125 -2.421875 8.203125 -3.046875 L 8.1875 -5.84375 C 8.1875 -6.71875 8.0625 -7.359375 7.8125 -7.765625 C 7.570312 -8.171875 7.160156 -8.375 6.578125 -8.375 C 6.265625 -8.375 5.941406 -8.304688 5.609375 -8.171875 C 5.285156 -8.035156 5.007812 -7.863281 4.78125 -7.65625 L 4.78125 -3.1875 C 4.78125 -2.550781 4.753906 -1.96875 4.703125 -1.4375 C 5.128906 -1.476562 5.554688 -1.5 5.984375 -1.5 L 5.984375 0 L 0.8125 0 Z M 0.8125 -1.28125 "/></g></g></g><g fill="#7c6f64" fill-opacity="1"><g transform="translate(82.482665, 31.13526)"><g><path d="M 5.0625 5.359375 C 3.46875 5.359375 2.316406 5.113281 1.609375 4.625 C 0.898438 4.132812 0.546875 3.515625 0.546875 2.765625 C 0.546875 2.304688 0.691406 1.875 0.984375 1.46875 C 1.285156 1.070312 1.769531 0.75 2.4375 0.5 C 1.914062 0.351562 1.539062 0.128906 1.3125 -0.171875 C 1.082031 -0.472656 0.96875 -0.832031 0.96875 -1.25 C 0.96875 -1.644531 1.117188 -2.046875 1.421875 -2.453125 C 1.734375 -2.859375 2.222656 -3.160156 2.890625 -3.359375 L 2.890625 -3.375 C 2.296875 -3.613281 1.820312 -3.984375 1.46875 -4.484375 C 1.125 -4.992188 0.953125 -5.601562 0.953125 -6.3125 C 0.953125 -7.039062 1.15625 -7.703125 1.5625 -8.296875 C 1.976562 -8.890625 2.523438 -9.351562 3.203125 -9.6875 C 3.890625 -10.03125 4.609375 -10.203125 5.359375 -10.203125 C 5.753906 -10.203125 6.164062 -10.148438 6.59375 -10.046875 C 7.03125 -9.953125 7.398438 -9.800781 7.703125 -9.59375 C 7.953125 -10.269531 8.285156 -10.835938 8.703125 -11.296875 C 9.128906 -11.753906 9.632812 -11.984375 10.21875 -11.984375 C 10.65625 -11.984375 10.988281 -11.867188 11.21875 -11.640625 C 11.457031 -11.421875 11.578125 -11.113281 11.578125 -10.71875 C 11.578125 -10.414062 11.484375 -10.132812 11.296875 -9.875 C 11.109375 -9.625 10.804688 -9.5 10.390625 -9.5 C 10.179688 -9.5 9.972656 -9.578125 9.765625 -9.734375 C 9.566406 -9.890625 9.445312 -10.070312 9.40625 -10.28125 C 9.238281 -10.226562 9.066406 -10.054688 8.890625 -9.765625 C 8.722656 -9.484375 8.625 -9.226562 8.59375 -9 C 8.96875 -8.664062 9.253906 -8.28125 9.453125 -7.84375 C 9.660156 -7.40625 9.765625 -6.9375 9.765625 -6.4375 C 9.765625 -5.707031 9.550781 -5.039062 9.125 -4.4375 C 8.707031 -3.832031 8.15625 -3.363281 7.46875 -3.03125 C 6.78125 -2.695312 6.050781 -2.53125 5.28125 -2.53125 L 4.71875 -2.546875 C 4.4375 -2.578125 4.226562 -2.59375 4.09375 -2.59375 C 3.800781 -2.59375 3.554688 -2.535156 3.359375 -2.421875 C 3.160156 -2.316406 3.0625 -2.175781 3.0625 -2 C 3.0625 -1.757812 3.242188 -1.585938 3.609375 -1.484375 C 3.972656 -1.390625 4.632812 -1.316406 5.59375 -1.265625 C 7.25 -1.171875 8.503906 -0.894531 9.359375 -0.4375 C 10.222656 0.0195312 10.65625 0.789062 10.65625 1.875 C 10.65625 2.582031 10.378906 3.203125 9.828125 3.734375 C 9.285156 4.265625 8.582031 4.664062 7.71875 4.9375 C 6.851562 5.21875 5.96875 5.359375 5.0625 5.359375 Z M 5.359375 -3.859375 C 5.859375 -3.859375 6.253906 -4.082031 6.546875 -4.53125 C 6.847656 -4.976562 7 -5.5 7 -6.09375 C 7 -6.84375 6.851562 -7.492188 6.5625 -8.046875 C 6.269531 -8.597656 5.863281 -8.875 5.34375 -8.875 C 4.832031 -8.875 4.425781 -8.640625 4.125 -8.171875 C 3.820312 -7.710938 3.671875 -7.171875 3.671875 -6.546875 C 3.671875 -5.804688 3.820312 -5.171875 4.125 -4.640625 C 4.425781 -4.117188 4.835938 -3.859375 5.359375 -3.859375 Z M 5.640625 4 C 6.222656 4 6.726562 3.914062 7.15625 3.75 C 7.59375 3.59375 7.921875 3.390625 8.140625 3.140625 C 8.367188 2.898438 8.484375 2.65625 8.484375 2.40625 C 8.484375 2 8.25 1.691406 7.78125 1.484375 C 7.3125 1.273438 6.597656 1.148438 5.640625 1.109375 C 5.523438 1.097656 5.351562 1.09375 5.125 1.09375 C 4.988281 1.070312 4.753906 1.050781 4.421875 1.03125 C 4.097656 1.019531 3.828125 0.992188 3.609375 0.953125 C 3.421875 1.109375 3.269531 1.3125 3.15625 1.5625 C 3.039062 1.8125 2.984375 2.0625 2.984375 2.3125 C 2.984375 2.820312 3.222656 3.226562 3.703125 3.53125 C 4.179688 3.84375 4.828125 4 5.640625 4 Z M 5.640625 4 "/></g></g></g><g fill="#7c6f64" fill-opacity="1"><g transform="translate(21.957364, 48.185521)"><g><path d="M 0.984375 -1.296875 C 1.335938 -1.316406 1.609375 -1.363281 1.796875 -1.4375 C 1.984375 -1.507812 2.128906 -1.660156 2.234375 -1.890625 C 2.335938 -2.128906 2.390625 -2.507812 2.390625 -3.03125 L 2.390625 -10.59375 C 2.390625 -11.332031 2.414062 -11.925781 2.46875 -12.375 L 0.984375 -12.3125 L 0.984375 -13.828125 L 6.65625 -13.828125 L 6.65625 -12.53125 C 6.300781 -12.519531 6.03125 -12.476562 5.84375 -12.40625 C 5.664062 -12.332031 5.519531 -12.175781 5.40625 -11.9375 C 5.300781 -11.695312 5.25 -11.320312 5.25 -10.8125 L 5.25 -7.8125 L 6.6875 -7.8125 L 8.203125 -10.390625 C 8.835938 -11.503906 9.285156 -12.164062 9.546875 -12.375 L 9.546875 -12.390625 C 9.253906 -12.367188 9.003906 -12.351562 8.796875 -12.34375 C 8.585938 -12.332031 8.421875 -12.320312 8.296875 -12.3125 L 8.296875 -13.828125 L 13.140625 -13.828125 L 13.140625 -12.53125 C 12.578125 -12.5 12.046875 -12.351562 11.546875 -12.09375 C 11.054688 -11.832031 10.566406 -11.304688 10.078125 -10.515625 L 8.1875 -7.46875 L 8.1875 -7.453125 C 8.6875 -7.148438 9.097656 -6.769531 9.421875 -6.3125 L 11.46875 -3.4375 C 12.4375 -2.050781 13.296875 -1.335938 14.046875 -1.296875 L 14.046875 0 L 11.015625 0 C 10.867188 -0.0078125 10.578125 -0.242188 10.140625 -0.703125 C 9.710938 -1.160156 9.359375 -1.597656 9.078125 -2.015625 L 7.109375 -4.859375 C 6.929688 -5.117188 6.734375 -5.378906 6.515625 -5.640625 C 6.304688 -5.910156 6.125 -6.101562 5.96875 -6.21875 L 5.25 -6.21875 L 5.25 -3.234375 C 5.25 -2.503906 5.222656 -1.914062 5.171875 -1.46875 C 5.597656 -1.5 6.09375 -1.515625 6.65625 -1.515625 L 6.65625 0 L 0.984375 0 Z M 0.984375 -1.296875 "/></g></g></g><g fill="#7c6f64" fill-opacity="1"><g transform="translate(35.493321, 48.185521)"><g><path d="M 5.5 0.3125 C 4.53125 0.3125 3.675781 0.0976562 2.9375 -0.328125 C 2.207031 -0.753906 1.632812 -1.363281 1.21875 -2.15625 C 0.8125 -2.945312 0.609375 -3.867188 0.609375 -4.921875 C 0.609375 -5.847656 0.816406 -6.710938 1.234375 -7.515625 C 1.648438 -8.328125 2.234375 -8.976562 2.984375 -9.46875 C 3.734375 -9.957031 4.585938 -10.203125 5.546875 -10.203125 C 6.828125 -10.203125 7.890625 -9.828125 8.734375 -9.078125 C 9.585938 -8.328125 10.007812 -7.070312 10 -5.3125 L 3.515625 -5.203125 C 3.515625 -4.035156 3.734375 -3.113281 4.171875 -2.4375 C 4.617188 -1.769531 5.332031 -1.4375 6.3125 -1.4375 C 6.769531 -1.4375 7.257812 -1.554688 7.78125 -1.796875 C 8.3125 -2.035156 8.785156 -2.410156 9.203125 -2.921875 L 10.09375 -2.09375 C 8.976562 -0.488281 7.445312 0.3125 5.5 0.3125 Z M 7.28125 -6.578125 C 7.238281 -8.066406 6.695312 -8.8125 5.65625 -8.8125 C 5.082031 -8.8125 4.628906 -8.609375 4.296875 -8.203125 C 3.960938 -7.804688 3.742188 -7.265625 3.640625 -6.578125 Z M 7.28125 -6.578125 "/></g></g></g><g fill="#7c6f64" fill-opacity="1"><g transform="translate(46.124532, 48.185521)"><g><path d="M 0.5 -1.28125 C 0.851562 -1.28125 1.109375 -1.347656 1.265625 -1.484375 C 1.429688 -1.628906 1.535156 -1.816406 1.578125 -2.046875 C 1.628906 -2.285156 1.65625 -2.617188 1.65625 -3.046875 L 1.65625 -11.171875 C 1.65625 -11.796875 1.679688 -12.367188 1.734375 -12.890625 L 0.359375 -12.828125 L 0.359375 -14.328125 C 1.179688 -14.328125 1.847656 -14.382812 2.359375 -14.5 C 2.878906 -14.625 3.226562 -14.765625 3.40625 -14.921875 L 4.46875 -14.921875 L 4.46875 -3.1875 C 4.46875 -2.550781 4.441406 -1.96875 4.390625 -1.4375 C 4.828125 -1.476562 5.253906 -1.5 5.671875 -1.5 L 5.671875 0 L 0.5 0 Z M 0.5 -1.28125 "/></g></g></g><g fill="#7c6f64" fill-opacity="1"><g transform="translate(52.289852, 48.185521)"><g><path d="M 4.90625 0.3125 C 3.726562 0.3125 2.882812 -0.0234375 2.375 -0.703125 C 1.875 -1.390625 1.625 -2.503906 1.625 -4.046875 L 1.625 -6.328125 C 1.625 -6.878906 1.644531 -7.453125 1.6875 -8.046875 L 0.296875 -7.984375 L 0.296875 -9.484375 C 1.128906 -9.484375 1.800781 -9.539062 2.3125 -9.65625 C 2.820312 -9.78125 3.164062 -9.921875 3.34375 -10.078125 L 4.421875 -10.078125 L 4.421875 -4.03125 C 4.421875 -3.164062 4.53125 -2.523438 4.75 -2.109375 C 4.976562 -1.703125 5.335938 -1.5 5.828125 -1.5 C 6.160156 -1.5 6.5 -1.59375 6.84375 -1.78125 C 7.195312 -1.96875 7.492188 -2.191406 7.734375 -2.453125 L 7.734375 -6.328125 C 7.734375 -6.941406 7.757812 -7.515625 7.8125 -8.046875 L 6.421875 -7.984375 L 6.421875 -9.484375 C 7.253906 -9.484375 7.921875 -9.539062 8.421875 -9.65625 C 8.929688 -9.78125 9.273438 -9.921875 9.453125 -10.078125 L 10.53125 -10.078125 L 10.53125 -3.1875 C 10.53125 -2.550781 10.503906 -1.96875 10.453125 -1.4375 C 10.878906 -1.476562 11.304688 -1.5 11.734375 -1.5 L 11.734375 0 L 7.984375 0 L 7.859375 -1.03125 L 7.84375 -1.03125 C 7.351562 -0.601562 6.878906 -0.269531 6.421875 -0.03125 C 5.972656 0.195312 5.46875 0.3125 4.90625 0.3125 Z M 4.90625 0.3125 "/></g></g></g><g fill="#7c6f64" fill-opacity="1"><g transform="translate(64.501913, 48.185521)"><g><path d="M 3.28125 0.3125 C 2.445312 0.3125 1.789062 0.0664062 1.3125 -0.421875 C 0.832031 -0.921875 0.59375 -1.550781 0.59375 -2.3125 C 0.59375 -3.46875 1.128906 -4.34375 2.203125 -4.9375 C 3.285156 -5.539062 4.585938 -5.878906 6.109375 -5.953125 L 6.109375 -6.984375 C 6.109375 -8.179688 5.660156 -8.78125 4.765625 -8.78125 C 4.179688 -8.78125 3.707031 -8.59375 3.34375 -8.21875 C 3.5 -8.039062 3.578125 -7.789062 3.578125 -7.46875 C 3.578125 -7.15625 3.46875 -6.875 3.25 -6.625 C 3.03125 -6.375 2.710938 -6.25 2.296875 -6.25 C 1.898438 -6.25 1.585938 -6.375 1.359375 -6.625 C 1.140625 -6.882812 1.03125 -7.207031 1.03125 -7.59375 C 1.03125 -8.101562 1.210938 -8.554688 1.578125 -8.953125 C 1.953125 -9.347656 2.457031 -9.65625 3.09375 -9.875 C 3.726562 -10.09375 4.429688 -10.203125 5.203125 -10.203125 C 7.640625 -10.203125 8.859375 -8.941406 8.859375 -6.421875 L 8.828125 -3.1875 C 8.828125 -2.550781 8.800781 -1.96875 8.75 -1.4375 C 9.1875 -1.476562 9.617188 -1.5 10.046875 -1.5 L 10.046875 0 L 6.3125 0 C 6.28125 -0.164062 6.25 -0.46875 6.21875 -0.90625 L 6.203125 -0.90625 C 5.398438 -0.09375 4.425781 0.3125 3.28125 0.3125 Z M 4.53125 -1.625 C 5.125 -1.625 5.644531 -1.859375 6.09375 -2.328125 L 6.09375 -4.546875 C 5.3125 -4.460938 4.664062 -4.265625 4.15625 -3.953125 C 3.65625 -3.640625 3.40625 -3.210938 3.40625 -2.671875 C 3.40625 -2.316406 3.507812 -2.050781 3.71875 -1.875 C 3.9375 -1.707031 4.207031 -1.625 4.53125 -1.625 Z M 4.53125 -1.625 "/></g></g></g><g fill="#7c6f64" fill-opacity="1"><g transform="translate(74.856477, 48.185521)"><g><path d="M 0.8125 -1.28125 C 1.3125 -1.28125 1.628906 -1.414062 1.765625 -1.6875 C 1.898438 -1.96875 1.96875 -2.421875 1.96875 -3.046875 L 1.96875 -6.359375 C 1.96875 -6.953125 2 -7.515625 2.0625 -8.046875 L 0.671875 -7.984375 L 0.671875 -9.484375 C 1.503906 -9.484375 2.175781 -9.539062 2.6875 -9.65625 C 3.195312 -9.78125 3.539062 -9.921875 3.71875 -10.078125 L 4.6875 -10.078125 C 4.707031 -9.878906 4.722656 -9.617188 4.734375 -9.296875 C 4.753906 -8.984375 4.765625 -8.675781 4.765625 -8.375 L 4.796875 -8.375 C 5.691406 -9.59375 6.644531 -10.203125 7.65625 -10.203125 C 8.15625 -10.203125 8.566406 -10.0625 8.890625 -9.78125 C 9.210938 -9.507812 9.375 -9.101562 9.375 -8.5625 C 9.375 -8.21875 9.257812 -7.898438 9.03125 -7.609375 C 8.8125 -7.316406 8.476562 -7.171875 8.03125 -7.171875 C 7.695312 -7.171875 7.398438 -7.253906 7.140625 -7.421875 C 6.890625 -7.597656 6.742188 -7.898438 6.703125 -8.328125 C 6.328125 -8.328125 5.945312 -8.109375 5.5625 -7.671875 C 5.175781 -7.242188 4.914062 -6.820312 4.78125 -6.40625 L 4.78125 -3.1875 C 4.78125 -2.550781 4.753906 -1.96875 4.703125 -1.4375 C 5.128906 -1.476562 5.554688 -1.5 5.984375 -1.5 L 5.984375 0 L 0.8125 0 Z M 0.8125 -1.28125 "/></g></g></g><g fill="#7c6f64" fill-opacity="1"><g transform="translate(84.203235, 48.185521)"><g><path d="M 5.0625 5.359375 C 3.46875 5.359375 2.316406 5.113281 1.609375 4.625 C 0.898438 4.132812 0.546875 3.515625 0.546875 2.765625 C 0.546875 2.304688 0.691406 1.875 0.984375 1.46875 C 1.285156 1.070312 1.769531 0.75 2.4375 0.5 C 1.914062 0.351562 1.539062 0.128906 1.3125 -0.171875 C 1.082031 -0.472656 0.96875 -0.832031 0.96875 -1.25 C 0.96875 -1.644531 1.117188 -2.046875 1.421875 -2.453125 C 1.734375 -2.859375 2.222656 -3.160156 2.890625 -3.359375 L 2.890625 -3.375 C 2.296875 -3.613281 1.820312 -3.984375 1.46875 -4.484375 C 1.125 -4.992188 0.953125 -5.601562 0.953125 -6.3125 C 0.953125 -7.039062 1.15625 -7.703125 1.5625 -8.296875 C 1.976562 -8.890625 2.523438 -9.351562 3.203125 -9.6875 C 3.890625 -10.03125 4.609375 -10.203125 5.359375 -10.203125 C 5.753906 -10.203125 6.164062 -10.148438 6.59375 -10.046875 C 7.03125 -9.953125 7.398438 -9.800781 7.703125 -9.59375 C 7.953125 -10.269531 8.285156 -10.835938 8.703125 -11.296875 C 9.128906 -11.753906 9.632812 -11.984375 10.21875 -11.984375 C 10.65625 -11.984375 10.988281 -11.867188 11.21875 -11.640625 C 11.457031 -11.421875 11.578125 -11.113281 11.578125 -10.71875 C 11.578125 -10.414062 11.484375 -10.132812 11.296875 -9.875 C 11.109375 -9.625 10.804688 -9.5 10.390625 -9.5 C 10.179688 -9.5 9.972656 -9.578125 9.765625 -9.734375 C 9.566406 -9.890625 9.445312 -10.070312 9.40625 -10.28125 C 9.238281 -10.226562 9.066406 -10.054688 8.890625 -9.765625 C 8.722656 -9.484375 8.625 -9.226562 8.59375 -9 C 8.96875 -8.664062 9.253906 -8.28125 9.453125 -7.84375 C 9.660156 -7.40625 9.765625 -6.9375 9.765625 -6.4375 C 9.765625 -5.707031 9.550781 -5.039062 9.125 -4.4375 C 8.707031 -3.832031 8.15625 -3.363281 7.46875 -3.03125 C 6.78125 -2.695312 6.050781 -2.53125 5.28125 -2.53125 L 4.71875 -2.546875 C 4.4375 -2.578125 4.226562 -2.59375 4.09375 -2.59375 C 3.800781 -2.59375 3.554688 -2.535156 3.359375 -2.421875 C 3.160156 -2.316406 3.0625 -2.175781 3.0625 -2 C 3.0625 -1.757812 3.242188 -1.585938 3.609375 -1.484375 C 3.972656 -1.390625 4.632812 -1.316406 5.59375 -1.265625 C 7.25 -1.171875 8.503906 -0.894531 9.359375 -0.4375 C 10.222656 0.0195312 10.65625 0.789062 10.65625 1.875 C 10.65625 2.582031 10.378906 3.203125 9.828125 3.734375 C 9.285156 4.265625 8.582031 4.664062 7.71875 4.9375 C 6.851562 5.21875 5.96875 5.359375 5.0625 5.359375 Z M 5.359375 -3.859375 C 5.859375 -3.859375 6.253906 -4.082031 6.546875 -4.53125 C 6.847656 -4.976562 7 -5.5 7 -6.09375 C 7 -6.84375 6.851562 -7.492188 6.5625 -8.046875 C 6.269531 -8.597656 5.863281 -8.875 5.34375 -8.875 C 4.832031 -8.875 4.425781 -8.640625 4.125 -8.171875 C 3.820312 -7.710938 3.671875 -7.171875 3.671875 -6.546875 C 3.671875 -5.804688 3.820312 -5.171875 4.125 -4.640625 C 4.425781 -4.117188 4.835938 -3.859375 5.359375 -3.859375 Z M 5.640625 4 C 6.222656 4 6.726562 3.914062 7.15625 3.75 C 7.59375 3.59375 7.921875 3.390625 8.140625 3.140625 C 8.367188 2.898438 8.484375 2.65625 8.484375 2.40625 C 8.484375 2 8.25 1.691406 7.78125 1.484375 C 7.3125 1.273438 6.597656 1.148438 5.640625 1.109375 C 5.523438 1.097656 5.351562 1.09375 5.125 1.09375 C 4.988281 1.070312 4.753906 1.050781 4.421875 1.03125 C 4.097656 1.019531 3.828125 0.992188 3.609375 0.953125 C 3.421875 1.109375 3.269531 1.3125 3.15625 1.5625 C 3.039062 1.8125 2.984375 2.0625 2.984375 2.3125 C 2.984375 2.820312 3.222656 3.226562 3.703125 3.53125 C 4.179688 3.84375 4.828125 4 5.640625 4 Z M 5.640625 4 "/></g></g></g><g fill="#7c6f64" fill-opacity="1"><g transform="translate(95.091321, 48.185521)"><g><path d="M 3.28125 0.3125 C 2.445312 0.3125 1.789062 0.0664062 1.3125 -0.421875 C 0.832031 -0.921875 0.59375 -1.550781 0.59375 -2.3125 C 0.59375 -3.46875 1.128906 -4.34375 2.203125 -4.9375 C 3.285156 -5.539062 4.585938 -5.878906 6.109375 -5.953125 L 6.109375 -6.984375 C 6.109375 -8.179688 5.660156 -8.78125 4.765625 -8.78125 C 4.179688 -8.78125 3.707031 -8.59375 3.34375 -8.21875 C 3.5 -8.039062 3.578125 -7.789062 3.578125 -7.46875 C 3.578125 -7.15625 3.46875 -6.875 3.25 -6.625 C 3.03125 -6.375 2.710938 -6.25 2.296875 -6.25 C 1.898438 -6.25 1.585938 -6.375 1.359375 -6.625 C 1.140625 -6.882812 1.03125 -7.207031 1.03125 -7.59375 C 1.03125 -8.101562 1.210938 -8.554688 1.578125 -8.953125 C 1.953125 -9.347656 2.457031 -9.65625 3.09375 -9.875 C 3.726562 -10.09375 4.429688 -10.203125 5.203125 -10.203125 C 7.640625 -10.203125 8.859375 -8.941406 8.859375 -6.421875 L 8.828125 -3.1875 C 8.828125 -2.550781 8.800781 -1.96875 8.75 -1.4375 C 9.1875 -1.476562 9.617188 -1.5 10.046875 -1.5 L 10.046875 0 L 6.3125 0 C 6.28125 -0.164062 6.25 -0.46875 6.21875 -0.90625 L 6.203125 -0.90625 C 5.398438 -0.09375 4.425781 0.3125 3.28125 0.3125 Z M 4.53125 -1.625 C 5.125 -1.625 5.644531 -1.859375 6.09375 -2.328125 L 6.09375 -4.546875 C 5.3125 -4.460938 4.664062 -4.265625 4.15625 -3.953125 C 3.65625 -3.640625 3.40625 -3.210938 3.40625 -2.671875 C 3.40625 -2.316406 3.507812 -2.050781 3.71875 -1.875 C 3.9375 -1.707031 4.207031 -1.625 4.53125 -1.625 Z M 4.53125 -1.625 "/></g></g></g></svg>