<svg xmlns="http://www.w3.org/2000/svg" xmlns:xlink="http://www.w3.org/1999/xlink" width="170" zoomAndPan="magnify" viewBox="0 0 127.92 75.119995" height="90" preserveAspectRatio="xMidYMid meet" version="1.0"><defs><g/><clipPath id="a3762453a8"><rect x="0" width="102" y="0" height="44"/></clipPath></defs><g transform="matrix(1, 0, 0, 1, 13, 11)"><g clip-path="url(#a3762453a8)"><g fill="#7c6f64" fill-opacity="1"><g transform="translate(12.272247, 20.715418)"><g><path d="M 3.546875 -1.296875 C 3.898438 -1.316406 4.171875 -1.359375 4.359375 -1.421875 C 4.546875 -1.492188 4.691406 -1.648438 4.796875 -1.890625 C 4.898438 -2.128906 4.953125 -2.503906 4.953125 -3.015625 L 4.953125 -12.46875 L 4.046875 -12.46875 C 3.265625 -12.445312 2.660156 -12.179688 2.234375 -11.671875 C 1.816406 -11.160156 1.609375 -10.382812 1.609375 -9.34375 L 0.3125 -9.34375 L 0.421875 -13.796875 L 12.359375 -13.796875 L 12.484375 -9.34375 L 11.1875 -9.34375 C 11.1875 -10.382812 10.972656 -11.171875 10.546875 -11.703125 C 10.117188 -12.234375 9.519531 -12.492188 8.75 -12.484375 L 7.8125 -12.484375 L 7.8125 -3.234375 C 7.8125 -2.347656 7.785156 -1.753906 7.734375 -1.453125 C 8.160156 -1.492188 8.6875 -1.515625 9.3125 -1.515625 L 9.3125 0 L 3.546875 0 Z M 3.546875 -1.296875 "/></g></g></g><g fill="#7c6f64" fill-opacity="1"><g transform="translate(24.087793, 20.715418)"><g><path d="M 5.484375 0.3125 C 4.523438 0.3125 3.675781 0.0976562 2.9375 -0.328125 C 2.195312 -0.753906 1.625 -1.359375 1.21875 -2.140625 C 0.8125 -2.929688 0.609375 -3.851562 0.609375 -4.90625 C 0.609375 -5.832031 0.816406 -6.695312 1.234375 -7.5 C 1.648438 -8.3125 2.226562 -8.957031 2.96875 -9.4375 C 3.71875 -9.925781 4.578125 -10.171875 5.546875 -10.171875 C 6.816406 -10.171875 7.875 -9.796875 8.71875 -9.046875 C 9.570312 -8.296875 9.992188 -7.046875 9.984375 -5.296875 L 3.515625 -5.1875 C 3.515625 -4.03125 3.734375 -3.113281 4.171875 -2.4375 C 4.609375 -1.769531 5.316406 -1.4375 6.296875 -1.4375 C 6.753906 -1.4375 7.242188 -1.554688 7.765625 -1.796875 C 8.296875 -2.035156 8.769531 -2.410156 9.1875 -2.921875 L 10.078125 -2.09375 C 8.960938 -0.488281 7.429688 0.3125 5.484375 0.3125 Z M 7.25 -6.5625 C 7.21875 -8.050781 6.679688 -8.796875 5.640625 -8.796875 C 5.078125 -8.796875 4.625 -8.59375 4.28125 -8.1875 C 3.945312 -7.789062 3.726562 -7.25 3.625 -6.5625 Z M 7.25 -6.5625 "/></g></g></g><g fill="#7c6f64" fill-opacity="1"><g transform="translate(34.700088, 20.715418)"><g><path d="M 0.8125 -1.28125 C 1.3125 -1.28125 1.628906 -1.414062 1.765625 -1.6875 C 1.898438 -1.96875 1.96875 -2.414062 1.96875 -3.03125 L 1.96875 -6.34375 C 1.96875 -6.9375 1.992188 -7.5 2.046875 -8.03125 L 0.671875 -7.96875 L 0.671875 -9.46875 C 1.492188 -9.46875 2.160156 -9.523438 2.671875 -9.640625 C 3.191406 -9.753906 3.535156 -9.894531 3.703125 -10.0625 L 4.671875 -10.0625 C 4.671875 -10.03125 4.695312 -9.703125 4.75 -9.078125 L 4.796875 -9.078125 C 5.171875 -9.378906 5.640625 -9.632812 6.203125 -9.84375 C 6.765625 -10.0625 7.238281 -10.171875 7.625 -10.171875 C 8.820312 -10.171875 9.675781 -9.828125 10.1875 -9.140625 C 10.707031 -8.460938 10.96875 -7.351562 10.96875 -5.8125 L 10.96875 -3.171875 C 10.96875 -2.546875 10.941406 -1.96875 10.890625 -1.4375 C 11.316406 -1.476562 11.742188 -1.5 12.171875 -1.5 L 12.171875 0 L 7 0 L 7 -1.28125 C 7.5 -1.28125 7.820312 -1.414062 7.96875 -1.6875 C 8.113281 -1.96875 8.1875 -2.414062 8.1875 -3.03125 L 8.15625 -5.84375 C 8.15625 -6.707031 8.035156 -7.34375 7.796875 -7.75 C 7.554688 -8.15625 7.144531 -8.359375 6.5625 -8.359375 C 6.25 -8.359375 5.925781 -8.289062 5.59375 -8.15625 C 5.269531 -8.019531 4.992188 -7.84375 4.765625 -7.625 L 4.765625 -3.171875 C 4.765625 -2.546875 4.738281 -1.96875 4.6875 -1.4375 C 5.113281 -1.476562 5.539062 -1.5 5.96875 -1.5 L 5.96875 0 L 0.8125 0 Z M 0.8125 -1.28125 "/></g></g></g><g fill="#7c6f64" fill-opacity="1"><g transform="translate(47.127121, 20.715418)"><g><path d="M 4.71875 0.3125 C 2.664062 0.3125 1.640625 -0.945312 1.640625 -3.46875 L 1.671875 -8.21875 L 0.328125 -8.21875 L 0.328125 -9.859375 C 0.753906 -9.859375 1.15625 -9.988281 1.53125 -10.25 C 1.90625 -10.507812 2.222656 -10.832031 2.484375 -11.21875 C 2.742188 -11.601562 2.925781 -11.972656 3.03125 -12.328125 L 4.5 -12.328125 L 4.46875 -9.859375 L 6.984375 -9.859375 L 6.984375 -8.34375 L 4.46875 -8.28125 L 4.453125 -3.4375 C 4.453125 -2.15625 4.847656 -1.515625 5.640625 -1.515625 C 6.273438 -1.515625 6.875 -1.910156 7.4375 -2.703125 L 8.375 -1.8125 C 7.757812 -0.90625 7.140625 -0.320312 6.515625 -0.0625 C 5.898438 0.1875 5.300781 0.3125 4.71875 0.3125 Z M 4.71875 0.3125 "/></g></g></g><g fill="#7c6f64" fill-opacity="1"><g transform="translate(55.273736, 20.715418)"><g><path d="M 3.265625 0.3125 C 2.441406 0.3125 1.789062 0.0664062 1.3125 -0.421875 C 0.832031 -0.910156 0.59375 -1.539062 0.59375 -2.3125 C 0.59375 -3.46875 1.128906 -4.34375 2.203125 -4.9375 C 3.285156 -5.539062 4.582031 -5.875 6.09375 -5.9375 L 6.09375 -6.953125 C 6.09375 -8.148438 5.644531 -8.75 4.75 -8.75 C 4.175781 -8.75 3.703125 -8.566406 3.328125 -8.203125 C 3.484375 -8.015625 3.5625 -7.765625 3.5625 -7.453125 C 3.5625 -7.140625 3.453125 -6.859375 3.234375 -6.609375 C 3.023438 -6.359375 2.707031 -6.234375 2.28125 -6.234375 C 1.894531 -6.234375 1.585938 -6.359375 1.359375 -6.609375 C 1.140625 -6.867188 1.03125 -7.191406 1.03125 -7.578125 C 1.03125 -8.085938 1.210938 -8.539062 1.578125 -8.9375 C 1.941406 -9.332031 2.441406 -9.632812 3.078125 -9.84375 C 3.722656 -10.0625 4.425781 -10.171875 5.1875 -10.171875 C 7.613281 -10.171875 8.828125 -8.914062 8.828125 -6.40625 L 8.8125 -3.171875 C 8.8125 -2.546875 8.785156 -1.96875 8.734375 -1.4375 C 9.171875 -1.476562 9.597656 -1.5 10.015625 -1.5 L 10.015625 0 L 6.296875 0 C 6.265625 -0.164062 6.238281 -0.46875 6.21875 -0.90625 L 6.1875 -0.90625 C 5.382812 -0.09375 4.410156 0.3125 3.265625 0.3125 Z M 4.515625 -1.609375 C 5.109375 -1.609375 5.628906 -1.847656 6.078125 -2.328125 L 6.078125 -4.53125 C 5.296875 -4.457031 4.648438 -4.257812 4.140625 -3.9375 C 3.640625 -3.625 3.390625 -3.195312 3.390625 -2.65625 C 3.390625 -2.300781 3.5 -2.035156 3.71875 -1.859375 C 3.9375 -1.691406 4.203125 -1.609375 4.515625 -1.609375 Z M 4.515625 -1.609375 "/></g></g></g><g fill="#7c6f64" fill-opacity="1"><g transform="translate(65.609876, 20.715418)"><g><path d="M 0.8125 -1.28125 C 1.3125 -1.28125 1.628906 -1.414062 1.765625 -1.6875 C 1.898438 -1.96875 1.96875 -2.414062 1.96875 -3.03125 L 1.96875 -6.34375 C 1.96875 -6.9375 1.992188 -7.5 2.046875 -8.03125 L 0.671875 -7.96875 L 0.671875 -9.46875 C 1.492188 -9.46875 2.160156 -9.523438 2.671875 -9.640625 C 3.191406 -9.753906 3.535156 -9.894531 3.703125 -10.0625 L 4.671875 -10.0625 C 4.671875 -10.03125 4.695312 -9.703125 4.75 -9.078125 L 4.796875 -9.078125 C 5.171875 -9.378906 5.640625 -9.632812 6.203125 -9.84375 C 6.765625 -10.0625 7.238281 -10.171875 7.625 -10.171875 C 8.820312 -10.171875 9.675781 -9.828125 10.1875 -9.140625 C 10.707031 -8.460938 10.96875 -7.351562 10.96875 -5.8125 L 10.96875 -3.171875 C 10.96875 -2.546875 10.941406 -1.96875 10.890625 -1.4375 C 11.316406 -1.476562 11.742188 -1.5 12.171875 -1.5 L 12.171875 0 L 7 0 L 7 -1.28125 C 7.5 -1.28125 7.820312 -1.414062 7.96875 -1.6875 C 8.113281 -1.96875 8.1875 -2.414062 8.1875 -3.03125 L 8.15625 -5.84375 C 8.15625 -6.707031 8.035156 -7.34375 7.796875 -7.75 C 7.554688 -8.15625 7.144531 -8.359375 6.5625 -8.359375 C 6.25 -8.359375 5.925781 -8.289062 5.59375 -8.15625 C 5.269531 -8.019531 4.992188 -7.84375 4.765625 -7.625 L 4.765625 -3.171875 C 4.765625 -2.546875 4.738281 -1.96875 4.6875 -1.4375 C 5.113281 -1.476562 5.539062 -1.5 5.96875 -1.5 L 5.96875 0 L 0.8125 0 Z M 0.8125 -1.28125 "/></g></g></g><g fill="#7c6f64" fill-opacity="1"><g transform="translate(78.155263, 20.715418)"><g><path d="M 5.046875 5.34375 C 3.453125 5.34375 2.300781 5.097656 1.59375 4.609375 C 0.894531 4.128906 0.546875 3.515625 0.546875 2.765625 C 0.546875 2.304688 0.691406 1.875 0.984375 1.46875 C 1.285156 1.070312 1.765625 0.75 2.421875 0.5 C 1.910156 0.351562 1.539062 0.128906 1.3125 -0.171875 C 1.082031 -0.472656 0.96875 -0.832031 0.96875 -1.25 C 0.96875 -1.632812 1.117188 -2.03125 1.421875 -2.4375 C 1.734375 -2.851562 2.21875 -3.160156 2.875 -3.359375 L 2.875 -3.375 C 2.28125 -3.613281 1.8125 -3.984375 1.46875 -4.484375 C 1.125 -4.992188 0.953125 -5.597656 0.953125 -6.296875 C 0.953125 -7.023438 1.15625 -7.6875 1.5625 -8.28125 C 1.976562 -8.875 2.523438 -9.335938 3.203125 -9.671875 C 3.878906 -10.003906 4.59375 -10.171875 5.34375 -10.171875 C 5.738281 -10.171875 6.148438 -10.117188 6.578125 -10.015625 C 7.015625 -9.921875 7.382812 -9.769531 7.6875 -9.5625 C 7.9375 -10.25 8.269531 -10.816406 8.6875 -11.265625 C 9.113281 -11.722656 9.613281 -11.953125 10.1875 -11.953125 C 10.625 -11.953125 10.960938 -11.835938 11.203125 -11.609375 C 11.441406 -11.390625 11.5625 -11.082031 11.5625 -10.6875 C 11.5625 -10.382812 11.460938 -10.109375 11.265625 -9.859375 C 11.078125 -9.609375 10.78125 -9.484375 10.375 -9.484375 C 10.164062 -9.484375 9.957031 -9.554688 9.75 -9.703125 C 9.539062 -9.859375 9.421875 -10.039062 9.390625 -10.25 C 9.210938 -10.195312 9.035156 -10.03125 8.859375 -9.75 C 8.691406 -9.46875 8.597656 -9.207031 8.578125 -8.96875 C 8.941406 -8.644531 9.222656 -8.265625 9.421875 -7.828125 C 9.628906 -7.390625 9.734375 -6.921875 9.734375 -6.421875 C 9.734375 -5.691406 9.523438 -5.023438 9.109375 -4.421875 C 8.691406 -3.828125 8.140625 -3.363281 7.453125 -3.03125 C 6.765625 -2.695312 6.035156 -2.53125 5.265625 -2.53125 L 4.71875 -2.546875 C 4.425781 -2.566406 4.210938 -2.578125 4.078125 -2.578125 C 3.785156 -2.578125 3.539062 -2.523438 3.34375 -2.421875 C 3.15625 -2.316406 3.0625 -2.171875 3.0625 -1.984375 C 3.0625 -1.753906 3.238281 -1.585938 3.59375 -1.484375 C 3.957031 -1.390625 4.617188 -1.316406 5.578125 -1.265625 C 7.234375 -1.171875 8.488281 -0.894531 9.34375 -0.4375 C 10.195312 0.0195312 10.625 0.789062 10.625 1.875 C 10.625 2.582031 10.347656 3.195312 9.796875 3.71875 C 9.253906 4.25 8.550781 4.648438 7.6875 4.921875 C 6.832031 5.203125 5.953125 5.34375 5.046875 5.34375 Z M 5.34375 -3.84375 C 5.84375 -3.84375 6.238281 -4.066406 6.53125 -4.515625 C 6.832031 -4.960938 6.984375 -5.484375 6.984375 -6.078125 C 6.984375 -6.828125 6.835938 -7.476562 6.546875 -8.03125 C 6.253906 -8.582031 5.847656 -8.859375 5.328125 -8.859375 C 4.828125 -8.859375 4.425781 -8.625 4.125 -8.15625 C 3.820312 -7.695312 3.671875 -7.15625 3.671875 -6.53125 C 3.671875 -5.789062 3.820312 -5.15625 4.125 -4.625 C 4.425781 -4.101562 4.832031 -3.84375 5.34375 -3.84375 Z M 5.625 3.984375 C 6.207031 3.984375 6.710938 3.90625 7.140625 3.75 C 7.566406 3.59375 7.890625 3.390625 8.109375 3.140625 C 8.335938 2.898438 8.453125 2.65625 8.453125 2.40625 C 8.453125 2 8.21875 1.6875 7.75 1.46875 C 7.289062 1.257812 6.582031 1.140625 5.625 1.109375 C 5.519531 1.085938 5.347656 1.078125 5.109375 1.078125 C 4.972656 1.066406 4.738281 1.050781 4.40625 1.03125 C 4.082031 1.007812 3.816406 0.984375 3.609375 0.953125 C 3.410156 1.109375 3.253906 1.3125 3.140625 1.5625 C 3.035156 1.8125 2.984375 2.0625 2.984375 2.3125 C 2.984375 2.820312 3.222656 3.226562 3.703125 3.53125 C 4.179688 3.832031 4.820312 3.984375 5.625 3.984375 Z M 5.625 3.984375 "/></g></g></g><g fill="#7c6f64" fill-opacity="1"><g transform="translate(0.825668, 38.249145)"><g><path d="M 3.546875 -1.296875 C 3.898438 -1.316406 4.171875 -1.359375 4.359375 -1.421875 C 4.546875 -1.492188 4.691406 -1.648438 4.796875 -1.890625 C 4.898438 -2.128906 4.953125 -2.503906 4.953125 -3.015625 L 4.953125 -12.46875 L 4.046875 -12.46875 C 3.265625 -12.445312 2.660156 -12.179688 2.234375 -11.671875 C 1.816406 -11.160156 1.609375 -10.382812 1.609375 -9.34375 L 0.3125 -9.34375 L 0.421875 -13.796875 L 12.359375 -13.796875 L 12.484375 -9.34375 L 11.1875 -9.34375 C 11.1875 -10.382812 10.972656 -11.171875 10.546875 -11.703125 C 10.117188 -12.234375 9.519531 -12.492188 8.75 -12.484375 L 7.8125 -12.484375 L 7.8125 -3.234375 C 7.8125 -2.347656 7.785156 -1.753906 7.734375 -1.453125 C 8.160156 -1.492188 8.6875 -1.515625 9.3125 -1.515625 L 9.3125 0 L 3.546875 0 Z M 3.546875 -1.296875 "/></g></g></g><g fill="#7c6f64" fill-opacity="1"><g transform="translate(12.641215, 38.249145)"><g><path d="M 5.484375 0.3125 C 4.523438 0.3125 3.675781 0.0976562 2.9375 -0.328125 C 2.195312 -0.753906 1.625 -1.359375 1.21875 -2.140625 C 0.8125 -2.929688 0.609375 -3.851562 0.609375 -4.90625 C 0.609375 -5.832031 0.816406 -6.695312 1.234375 -7.5 C 1.648438 -8.3125 2.226562 -8.957031 2.96875 -9.4375 C 3.71875 -9.925781 4.578125 -10.171875 5.546875 -10.171875 C 6.816406 -10.171875 7.875 -9.796875 8.71875 -9.046875 C 9.570312 -8.296875 9.992188 -7.046875 9.984375 -5.296875 L 3.515625 -5.1875 C 3.515625 -4.03125 3.734375 -3.113281 4.171875 -2.4375 C 4.609375 -1.769531 5.316406 -1.4375 6.296875 -1.4375 C 6.753906 -1.4375 7.242188 -1.554688 7.765625 -1.796875 C 8.296875 -2.035156 8.769531 -2.410156 9.1875 -2.921875 L 10.078125 -2.09375 C 8.960938 -0.488281 7.429688 0.3125 5.484375 0.3125 Z M 7.25 -6.5625 C 7.21875 -8.050781 6.679688 -8.796875 5.640625 -8.796875 C 5.078125 -8.796875 4.625 -8.59375 4.28125 -8.1875 C 3.945312 -7.789062 3.726562 -7.25 3.625 -6.5625 Z M 7.25 -6.5625 "/></g></g></g><g fill="#7c6f64" fill-opacity="1"><g transform="translate(23.253509, 38.249145)"><g><path d="M 0.8125 -1.28125 C 1.3125 -1.28125 1.628906 -1.414062 1.765625 -1.6875 C 1.898438 -1.96875 1.96875 -2.414062 1.96875 -3.03125 L 1.96875 -6.34375 C 1.96875 -6.9375 1.992188 -7.5 2.046875 -8.03125 L 0.671875 -7.96875 L 0.671875 -9.46875 C 1.492188 -9.46875 2.160156 -9.523438 2.671875 -9.640625 C 3.191406 -9.753906 3.535156 -9.894531 3.703125 -10.0625 L 4.671875 -10.0625 C 4.671875 -10.03125 4.695312 -9.703125 4.75 -9.078125 L 4.796875 -9.078125 C 5.203125 -9.398438 5.660156 -9.660156 6.171875 -9.859375 C 6.679688 -10.066406 7.179688 -10.171875 7.671875 -10.171875 C 8.265625 -10.171875 8.757812 -10.0625 9.15625 -9.84375 C 9.5625 -9.632812 9.878906 -9.3125 10.109375 -8.875 C 10.585938 -9.269531 11.113281 -9.582031 11.6875 -9.8125 C 12.269531 -10.050781 12.816406 -10.171875 13.328125 -10.171875 C 14.421875 -10.171875 15.234375 -9.851562 15.765625 -9.21875 C 16.296875 -8.59375 16.5625 -7.546875 16.5625 -6.078125 L 16.5625 -3.171875 C 16.5625 -2.546875 16.535156 -1.96875 16.484375 -1.4375 C 16.898438 -1.476562 17.328125 -1.5 17.765625 -1.5 L 17.765625 0 L 12.78125 0 L 12.78125 -1.28125 C 13.195312 -1.28125 13.460938 -1.421875 13.578125 -1.703125 C 13.703125 -1.984375 13.765625 -2.425781 13.765625 -3.03125 L 13.765625 -6.046875 C 13.753906 -6.878906 13.613281 -7.46875 13.34375 -7.8125 C 13.082031 -8.164062 12.703125 -8.34375 12.203125 -8.34375 C 11.628906 -8.34375 11.066406 -8.125 10.515625 -7.6875 C 10.628906 -7.164062 10.6875 -6.539062 10.6875 -5.8125 L 10.6875 -3.171875 C 10.6875 -2.546875 10.660156 -1.96875 10.609375 -1.4375 C 11.023438 -1.476562 11.453125 -1.5 11.890625 -1.5 L 11.890625 0 L 6.796875 0 L 6.796875 -1.28125 C 7.265625 -1.28125 7.5625 -1.414062 7.6875 -1.6875 C 7.820312 -1.96875 7.890625 -2.414062 7.890625 -3.03125 L 7.875 -6.109375 C 7.875 -6.921875 7.753906 -7.492188 7.515625 -7.828125 C 7.273438 -8.171875 6.921875 -8.347656 6.453125 -8.359375 C 5.867188 -8.359375 5.304688 -8.113281 4.765625 -7.625 L 4.765625 -3.171875 C 4.765625 -2.546875 4.738281 -1.96875 4.6875 -1.4375 C 5.113281 -1.476562 5.507812 -1.5 5.875 -1.5 L 5.875 0 L 0.8125 0 Z M 0.8125 -1.28125 "/></g></g></g><g fill="#7c6f64" fill-opacity="1"><g transform="translate(41.400922, 38.249145)"><g><path d="M 3.265625 0.3125 C 2.441406 0.3125 1.789062 0.0664062 1.3125 -0.421875 C 0.832031 -0.910156 0.59375 -1.539062 0.59375 -2.3125 C 0.59375 -3.46875 1.128906 -4.34375 2.203125 -4.9375 C 3.285156 -5.539062 4.582031 -5.875 6.09375 -5.9375 L 6.09375 -6.953125 C 6.09375 -8.148438 5.644531 -8.75 4.75 -8.75 C 4.175781 -8.75 3.703125 -8.566406 3.328125 -8.203125 C 3.484375 -8.015625 3.5625 -7.765625 3.5625 -7.453125 C 3.5625 -7.140625 3.453125 -6.859375 3.234375 -6.609375 C 3.023438 -6.359375 2.707031 -6.234375 2.28125 -6.234375 C 1.894531 -6.234375 1.585938 -6.359375 1.359375 -6.609375 C 1.140625 -6.867188 1.03125 -7.191406 1.03125 -7.578125 C 1.03125 -8.085938 1.210938 -8.539062 1.578125 -8.9375 C 1.941406 -9.332031 2.441406 -9.632812 3.078125 -9.84375 C 3.722656 -10.0625 4.425781 -10.171875 5.1875 -10.171875 C 7.613281 -10.171875 8.828125 -8.914062 8.828125 -6.40625 L 8.8125 -3.171875 C 8.8125 -2.546875 8.785156 -1.96875 8.734375 -1.4375 C 9.171875 -1.476562 9.597656 -1.5 10.015625 -1.5 L 10.015625 0 L 6.296875 0 C 6.265625 -0.164062 6.238281 -0.46875 6.21875 -0.90625 L 6.1875 -0.90625 C 5.382812 -0.09375 4.410156 0.3125 3.265625 0.3125 Z M 4.515625 -1.609375 C 5.109375 -1.609375 5.628906 -1.847656 6.078125 -2.328125 L 6.078125 -4.53125 C 5.296875 -4.457031 4.648438 -4.257812 4.140625 -3.9375 C 3.640625 -3.625 3.390625 -3.195312 3.390625 -2.65625 C 3.390625 -2.300781 3.5 -2.035156 3.71875 -1.859375 C 3.9375 -1.691406 4.203125 -1.609375 4.515625 -1.609375 Z M 4.515625 -1.609375 "/></g></g></g><g fill="#7c6f64" fill-opacity="1"><g transform="translate(51.737062, 38.249145)"><g><path d="M 0.8125 -1.28125 C 1.3125 -1.28125 1.628906 -1.414062 1.765625 -1.6875 C 1.898438 -1.96875 1.96875 -2.414062 1.96875 -3.03125 L 1.96875 -6.34375 C 1.96875 -6.9375 1.992188 -7.5 2.046875 -8.03125 L 0.671875 -7.96875 L 0.671875 -9.46875 C 1.492188 -9.46875 2.160156 -9.523438 2.671875 -9.640625 C 3.191406 -9.753906 3.535156 -9.894531 3.703125 -10.0625 L 4.671875 -10.0625 C 4.671875 -10.03125 4.695312 -9.703125 4.75 -9.078125 L 4.796875 -9.078125 C 5.171875 -9.378906 5.640625 -9.632812 6.203125 -9.84375 C 6.765625 -10.0625 7.238281 -10.171875 7.625 -10.171875 C 8.820312 -10.171875 9.675781 -9.828125 10.1875 -9.140625 C 10.707031 -8.460938 10.96875 -7.351562 10.96875 -5.8125 L 10.96875 -3.171875 C 10.96875 -2.546875 10.941406 -1.96875 10.890625 -1.4375 C 11.316406 -1.476562 11.742188 -1.5 12.171875 -1.5 L 12.171875 0 L 7 0 L 7 -1.28125 C 7.5 -1.28125 7.820312 -1.414062 7.96875 -1.6875 C 8.113281 -1.96875 8.1875 -2.414062 8.1875 -3.03125 L 8.15625 -5.84375 C 8.15625 -6.707031 8.035156 -7.34375 7.796875 -7.75 C 7.554688 -8.15625 7.144531 -8.359375 6.5625 -8.359375 C 6.25 -8.359375 5.925781 -8.289062 5.59375 -8.15625 C 5.269531 -8.019531 4.992188 -7.84375 4.765625 -7.625 L 4.765625 -3.171875 C 4.765625 -2.546875 4.738281 -1.96875 4.6875 -1.4375 C 5.113281 -1.476562 5.539062 -1.5 5.96875 -1.5 L 5.96875 0 L 0.8125 0 Z M 0.8125 -1.28125 "/></g></g></g><g fill="#7c6f64" fill-opacity="1"><g transform="translate(64.28245, 38.249145)"><g/></g></g><g fill="#7c6f64" fill-opacity="1"><g transform="translate(69.470243, 38.249145)"><g><path d="M 0.984375 -1.296875 C 1.335938 -1.316406 1.609375 -1.359375 1.796875 -1.421875 C 1.984375 -1.492188 2.128906 -1.648438 2.234375 -1.890625 C 2.335938 -2.128906 2.390625 -2.503906 2.390625 -3.015625 L 2.390625 -10.5625 C 2.390625 -11.300781 2.414062 -11.894531 2.46875 -12.34375 L 0.984375 -12.28125 L 0.984375 -13.796875 L 6.640625 -13.796875 L 6.640625 -12.5 C 6.285156 -12.488281 6.015625 -12.445312 5.828125 -12.375 C 5.648438 -12.300781 5.507812 -12.144531 5.40625 -11.90625 C 5.300781 -11.675781 5.25 -11.300781 5.25 -10.78125 L 5.25 -3.234375 C 5.25 -2.492188 5.222656 -1.898438 5.171875 -1.453125 C 5.585938 -1.492188 6.078125 -1.515625 6.640625 -1.515625 L 6.640625 0 L 0.984375 0 Z M 0.984375 -1.296875 "/></g></g></g><g fill="#7c6f64" fill-opacity="1"><g transform="translate(77.103993, 38.249145)"><g><path d="M 5.875 0.3125 C 5.414062 0.3125 4.925781 0.222656 4.40625 0.046875 C 3.882812 -0.128906 3.421875 -0.4375 3.015625 -0.875 L 3 -0.875 L 2.421875 0 L 1.25 0 L 1.25 -11.140625 C 1.25 -11.898438 1.265625 -12.472656 1.296875 -12.859375 L -0.078125 -12.796875 L -0.078125 -14.296875 C 0.742188 -14.296875 1.410156 -14.351562 1.921875 -14.46875 C 2.441406 -14.59375 2.785156 -14.734375 2.953125 -14.890625 L 4.015625 -14.890625 L 4.015625 -9.109375 C 4.816406 -9.816406 5.707031 -10.171875 6.6875 -10.171875 C 7.476562 -10.171875 8.171875 -9.96875 8.765625 -9.5625 C 9.359375 -9.15625 9.820312 -8.570312 10.15625 -7.8125 C 10.5 -7.0625 10.671875 -6.1875 10.671875 -5.1875 C 10.671875 -4.125 10.472656 -3.175781 10.078125 -2.34375 C 9.691406 -1.519531 9.132812 -0.867188 8.40625 -0.390625 C 7.6875 0.078125 6.84375 0.3125 5.875 0.3125 Z M 5.546875 -1.125 C 6.328125 -1.125 6.890625 -1.476562 7.234375 -2.1875 C 7.585938 -2.894531 7.765625 -3.796875 7.765625 -4.890625 C 7.765625 -5.859375 7.585938 -6.6875 7.234375 -7.375 C 6.890625 -8.0625 6.367188 -8.40625 5.671875 -8.40625 C 5.347656 -8.40625 5.035156 -8.328125 4.734375 -8.171875 C 4.441406 -8.023438 4.203125 -7.816406 4.015625 -7.546875 L 4.015625 -2.953125 C 4.015625 -2.304688 4.160156 -1.835938 4.453125 -1.546875 C 4.753906 -1.265625 5.117188 -1.125 5.546875 -1.125 Z M 5.546875 -1.125 "/></g></g></g><g fill="#7c6f64" fill-opacity="1"><g transform="translate(88.406675, 38.249145)"><g><path d="M 4.890625 0.3125 C 3.722656 0.3125 2.882812 -0.0234375 2.375 -0.703125 C 1.863281 -1.390625 1.609375 -2.503906 1.609375 -4.046875 L 1.609375 -6.3125 C 1.609375 -6.863281 1.628906 -7.4375 1.671875 -8.03125 L 0.296875 -7.96875 L 0.296875 -9.46875 C 1.117188 -9.46875 1.785156 -9.523438 2.296875 -9.640625 C 2.816406 -9.753906 3.160156 -9.894531 3.328125 -10.0625 L 4.421875 -10.0625 L 4.421875 -4.015625 C 4.421875 -3.148438 4.53125 -2.515625 4.75 -2.109375 C 4.976562 -1.703125 5.332031 -1.5 5.8125 -1.5 C 6.144531 -1.5 6.484375 -1.585938 6.828125 -1.765625 C 7.179688 -1.953125 7.472656 -2.175781 7.703125 -2.4375 L 7.703125 -6.3125 C 7.703125 -6.925781 7.726562 -7.5 7.78125 -8.03125 L 6.40625 -7.96875 L 6.40625 -9.46875 C 7.238281 -9.46875 7.90625 -9.523438 8.40625 -9.640625 C 8.914062 -9.753906 9.253906 -9.894531 9.421875 -10.0625 L 10.515625 -10.0625 L 10.515625 -3.171875 C 10.515625 -2.546875 10.488281 -1.96875 10.4375 -1.4375 C 10.851562 -1.476562 11.28125 -1.5 11.71875 -1.5 L 11.71875 0 L 7.96875 0 L 7.84375 -1.03125 L 7.828125 -1.03125 C 7.335938 -0.601562 6.863281 -0.269531 6.40625 -0.03125 C 5.957031 0.195312 5.453125 0.3125 4.890625 0.3125 Z M 4.890625 0.3125 "/></g></g></g></g></g></svg>